<?xml version="1.0" standalone="no"?>
<!DOCTYPE svg PUBLIC "-//W3C//DTD SVG 20010904//EN"
 "http://www.w3.org/TR/2001/REC-SVG-20010904/DTD/svg10.dtd">
<svg version="1.0" xmlns="http://www.w3.org/2000/svg"
 width="69.000000pt" height="61.000000pt" viewBox="0 0 69.000000 61.000000"
 preserveAspectRatio="xMidYMid meet">

<g transform="translate(0.000000,61.000000) scale(0.100000,-0.100000)"
fill="#000000" stroke="none">
<path d="M415 185 c-22 -8 -66 -15 -98 -15 -42 0 -58 -3 -55 -12 3 -9 37 -15
102 -19 141 -8 151 -29 13 -29 -96 0 -109 2 -128 21 -28 28 -139 63 -139 44 0
-15 74 -52 181 -91 66 -24 78 -25 122 -15 27 6 66 11 87 11 32 0 44 6 69 37
17 21 31 43 31 49 0 33 -114 44 -185 19z"/>
</g>
</svg>
