<svg width="24" height="23" viewBox="0 0 24 23" fill="none" xmlns="http://www.w3.org/2000/svg">
<path d="M11.9805 0.75C15.8906 0.75 19.5 2.85547 21.4766 6.25C23.4531 9.6875 23.4531 13.8555 21.4766 17.25C19.5 20.6875 15.8906 22.75 11.9805 22.75C8.02734 22.75 4.41797 20.6875 2.44141 17.25C0.464844 13.8555 0.464844 9.6875 2.44141 6.25C4.41797 2.85547 8.02734 0.75 11.9805 0.75ZM6.78125 11.1055L11.25 15.5742C11.6367 16.0039 12.2812 16.0039 12.7109 15.5742L17.1367 11.1055C17.5664 10.7188 17.5664 10.0742 17.1367 9.6875C16.75 9.25781 16.1055 9.25781 15.6758 9.6875L11.9375 13.4258L8.19922 9.6875C7.8125 9.25781 7.16797 9.25781 6.78125 9.6875C6.35156 10.0742 6.35156 10.7188 6.78125 11.1055Z" fill="#34C565"/>
</svg>
