<svg width="24" height="23" viewBox="0 0 24 23" fill="none" xmlns="http://www.w3.org/2000/svg">
<path d="M11.9805 22.9643C8.02734 22.9643 4.41797 20.9018 2.44141 17.4643C0.464844 14.0698 0.464844 9.90179 2.44141 6.46429C4.41797 3.06976 8.02734 0.964294 11.9805 0.964294C15.8906 0.964294 19.5 3.06976 21.4766 6.46429C23.4531 9.90179 23.4531 14.0698 21.4766 17.4643C19.5 20.9018 15.8906 22.9643 11.9805 22.9643ZM17.1797 12.6088L12.668 8.14008C12.2812 7.75336 11.6367 7.75336 11.25 8.14008L6.78125 12.6088C6.35156 13.0385 6.35156 13.683 6.78125 14.0698C7.16797 14.4995 7.8125 14.4995 8.24219 14.0698L11.9805 10.3315L15.7188 14.0698C16.1055 14.4995 16.75 14.4995 17.1797 14.0698C17.5664 13.683 17.5664 13.0385 17.1797 12.6088Z" fill="#34C565"/>
</svg>
