<svg width="16" height="16" viewBox="0 0 16 16" fill="none" xmlns="http://www.w3.org/2000/svg">
<path d="M5.56979 1.54883L6.74167 4.36133C6.94675 4.83008 6.82956 5.38672 6.4194 5.70898L4.98386 6.91016C5.95065 8.96094 7.62057 10.6309 9.67136 11.5977L10.8725 10.1621C11.1948 9.75195 11.7514 9.63477 12.2202 9.83984L15.0327 11.0117C15.5893 11.2168 15.853 11.832 15.7065 12.3887L15.0034 14.9668C14.8569 15.4648 14.4174 15.8164 13.8901 15.8164C6.62448 15.8164 0.765106 9.95703 0.765106 2.69141C0.765106 2.16406 1.11667 1.72461 1.61472 1.57812L4.19284 0.875C4.74948 0.728516 5.36472 0.992188 5.56979 1.54883Z" fill="white"/>
</svg>
