<svg width="59" height="57" viewBox="0 0 59 57" fill="none" xmlns="http://www.w3.org/2000/svg">
<path d="M46.0719 35.3092C44.9033 34.0942 43.4937 33.4445 41.9998 33.4445C40.5059 33.4445 39.0963 34.0821 37.8795 35.2972L34.0724 39.0867C33.7592 38.9182 33.4459 38.7618 33.1448 38.6055C32.711 38.3889 32.3014 38.1844 31.952 37.9679C28.3859 35.7062 25.1451 32.7588 22.0368 28.9453C20.5308 27.0445 19.5188 25.4445 18.7839 23.8204C19.7718 22.9182 20.6875 21.9798 21.579 21.0775C21.9163 20.7407 22.2537 20.3918 22.591 20.055C25.121 17.5287 25.121 14.2565 22.591 11.7301L19.302 8.4459C18.9285 8.07296 18.543 7.688 18.1815 7.30303C17.4587 6.55716 16.6997 5.78724 15.9166 5.06543C14.7479 3.91053 13.3504 3.297 11.8806 3.297C10.4108 3.297 8.98915 3.91053 7.78438 5.06543L7.76029 5.08949L3.66407 9.21583C2.12197 10.7557 1.24249 12.6324 1.04973 14.8098C0.760583 18.3226 1.79668 21.5948 2.59183 23.7362C4.54356 28.9934 7.4591 33.8656 11.8083 39.0867C17.0852 45.3784 23.4343 50.3469 30.687 53.8476C33.458 55.1589 37.1566 56.7108 41.289 56.9755C41.542 56.9875 41.807 56.9995 42.048 56.9995C44.831 56.9995 47.1683 56.001 48.9995 54.0161C49.0116 53.992 49.0357 53.98 49.0477 53.9559C49.6742 53.198 50.397 52.5123 51.156 51.7785C51.6741 51.2852 52.2042 50.7679 52.7222 50.2266C53.915 48.9875 54.5414 47.5438 54.5414 46.0641C54.5414 44.5844 53.9029 43.1408 52.6861 41.9378L46.0719 35.3092ZM50.385 47.9769C50.3729 47.9769 50.3729 47.989 50.385 47.9769C49.9151 48.4822 49.4332 48.9393 48.9152 49.4446C48.1321 50.1905 47.3369 50.9724 46.59 51.8506C45.3732 53.1499 43.9395 53.7634 42.06 53.7634C41.8793 53.7634 41.6866 53.7634 41.5058 53.7514C37.9277 53.5228 34.6025 52.1273 32.1087 50.9363C25.2897 47.6401 19.302 42.9604 14.3263 37.0295C10.218 32.0851 7.47114 27.5137 5.65194 22.6054C4.53151 19.6099 4.12189 17.276 4.3026 15.0745C4.42308 13.667 4.96522 12.5001 5.96518 11.5016L10.0734 7.39927C10.6638 6.84589 11.2903 6.54513 11.9047 6.54513C12.6637 6.54513 13.2781 7.00228 13.6637 7.38724C13.6757 7.39927 13.6877 7.4113 13.6998 7.42333C14.4347 8.10905 15.1335 8.81883 15.8684 9.57673C16.2419 9.96169 16.6274 10.3467 17.0129 10.7437L20.3019 14.0279C21.579 15.3031 21.579 16.482 20.3019 17.7572C19.9525 18.1061 19.6152 18.455 19.2658 18.7918C18.2538 19.8264 17.29 20.7888 16.2419 21.7272C16.2178 21.7512 16.1937 21.7633 16.1816 21.7873C15.1455 22.8219 15.3383 23.8324 15.5551 24.5182C15.5672 24.5543 15.5792 24.5903 15.5913 24.6264C16.4467 26.6956 17.6514 28.6445 19.4827 30.9663L19.4947 30.9783C22.8199 35.0686 26.3258 38.2566 30.1931 40.6987C30.687 41.0115 31.193 41.2641 31.6749 41.5047C32.1087 41.7213 32.5183 41.9258 32.8677 42.1423C32.9159 42.1664 32.964 42.2025 33.0122 42.2265C33.4219 42.431 33.8074 42.5273 34.205 42.5273C35.2049 42.5273 35.8314 41.9017 36.0362 41.6972L40.1565 37.5829C40.5661 37.1739 41.2167 36.6806 41.9757 36.6806C42.7347 36.6806 43.3371 37.1498 43.7106 37.5588L43.7347 37.5829L50.3729 44.2115C51.6139 45.4386 51.6139 46.7017 50.385 47.9769Z" fill="#34C565"/>
<path d="M31.8074 13.5587C34.9639 14.088 37.8313 15.5797 40.1203 17.8655C42.4094 20.1512 43.8913 23.0144 44.4334 26.1663C44.5659 26.9602 45.2526 27.5136 46.0357 27.5136C46.1321 27.5136 46.2165 27.5016 46.3128 27.4896C47.2044 27.3452 47.7947 26.5031 47.6501 25.6129C46.9996 21.7993 45.1924 18.3226 42.4335 15.5677C39.6746 12.8128 36.1928 11.0083 32.3737 10.3587C31.4821 10.2143 30.6508 10.8038 30.4942 11.682C30.3376 12.5602 30.9159 13.4143 31.8074 13.5587Z" fill="#34C565"/>
<path d="M57.975 25.1437C56.9028 18.864 53.9391 13.1496 49.385 8.60225C44.831 4.05486 39.1084 1.09544 32.8195 0.0247598C31.94 -0.131632 31.1087 0.469875 30.9521 1.34808C30.8075 2.23831 31.3979 3.06838 32.2894 3.22478C37.9036 4.17516 43.0239 6.83382 47.096 10.888C51.1681 14.9542 53.8186 20.067 54.7704 25.673C54.9029 26.467 55.5896 27.0204 56.3727 27.0204C56.4691 27.0204 56.5534 27.0084 56.6498 26.9963C57.5293 26.864 58.1317 26.0219 57.975 25.1437Z" fill="#34C565"/>
</svg>
