<svg width="46" height="46" viewBox="0 0 46 46" fill="none" xmlns="http://www.w3.org/2000/svg">
<path d="M36.8569 35.6H36.864C40.8048 35.6 44 38.9228 44 43.0211V44H29.72V43.0211C29.72 38.9228 32.9151 35.6 36.856 35.6H36.8569Z" stroke="#34C565" stroke-width="2.5" stroke-linecap="round" stroke-linejoin="round"/>
<path d="M36.86 35.6C38.9477 35.6 40.64 34.0957 40.64 32.24C40.64 30.3843 38.9477 28.88 36.86 28.88C34.7724 28.88 33.08 30.3843 33.08 32.24C33.08 34.0957 34.7724 35.6 36.86 35.6Z" stroke="#34C565" stroke-width="2.5" stroke-linecap="round" stroke-linejoin="round"/>
<path d="M23.003 35.6H22.9963C19.2872 35.6 16.28 38.9228 16.28 43.0211V44H29.72V43.0211C29.72 38.9228 26.7128 35.6 23.0038 35.6H23.003Z" stroke="#34C565" stroke-width="2.5" stroke-linecap="round" stroke-linejoin="round"/>
<path d="M23 35.6C24.8557 35.6 26.36 34.0957 26.36 32.24C26.36 30.3843 24.8557 28.88 23 28.88C21.1443 28.88 19.64 30.3843 19.64 32.24C19.64 34.0957 21.1443 35.6 23 35.6Z" stroke="#34C565" stroke-width="2.5" stroke-linecap="round" stroke-linejoin="round"/>
<path d="M9.13644 35.6H9.14356C13.0846 35.6 16.28 38.9228 16.28 43.0211V44H2V43.0211C2 38.9228 5.19536 35.6 9.13644 35.6Z" stroke="#34C565" stroke-width="2.5" stroke-linecap="round" stroke-linejoin="round"/>
<path d="M9.14005 35.6C11.2277 35.6 12.92 34.0957 12.92 32.24C12.92 30.3843 11.2277 28.88 9.14005 28.88C7.05241 28.88 5.36005 30.3843 5.36005 32.24C5.36005 34.0957 7.05241 35.6 9.14005 35.6Z" stroke="#34C565" stroke-width="2.5" stroke-linecap="round" stroke-linejoin="round"/>
<path d="M33.92 7.78397C33.92 7.78397 32.6749 20.9873 23.0005 23.84C13.3251 20.9873 12.08 7.78397 12.08 7.78397C16.1898 7.27696 20.0644 5.2777 23.0005 2C25.9356 5.2777 29.8103 7.27696 33.92 7.78397Z" stroke="#34C565" stroke-width="2.5" stroke-linecap="round" stroke-linejoin="round"/>
<path d="M20.48 13.7183L22.7077 16.2801L26.36 12.0801" stroke="#34C565" stroke-width="2.5" stroke-linecap="round" stroke-linejoin="round"/>
</svg>
