<svg width="64" height="66" viewBox="0 0 64 66" fill="none" xmlns="http://www.w3.org/2000/svg">
<path d="M59.5994 25.1623C58.5049 24.0957 57.373 22.9943 57.0147 22.1101C56.6205 21.1381 56.6531 19.4809 56.6857 17.8769C56.741 15.0287 56.8046 11.8007 54.6515 9.59616C52.4935 7.3883 49.3192 7.43806 46.5212 7.48451C44.9495 7.50939 43.3241 7.53593 42.373 7.13284C41.5049 6.76459 40.4251 5.61006 39.3811 4.49369C37.4121 2.38701 35.1792 0 31.9984 0C28.8176 0 26.5863 2.38701 24.6173 4.49203C23.5733 5.6084 22.4935 6.76293 21.6254 7.13118C20.6759 7.53427 19.0489 7.50773 17.4788 7.48285C14.6792 7.43972 11.5065 7.38664 9.34853 9.5945C7.19381 11.799 7.25733 15.0271 7.3127 17.8752C7.34365 19.4793 7.37622 21.1381 6.98371 22.1085C6.62541 22.9926 5.49349 24.0957 4.39902 25.1607C2.33713 27.1695 0 29.4454 0 32.68C0 35.9147 2.33713 38.1906 4.39902 40.1977C5.49349 41.2643 6.62541 42.3658 6.98371 43.2499C7.37785 44.222 7.34528 45.8808 7.31433 47.4832C7.25896 50.3313 7.19544 53.5593 9.35016 55.7639C10.7085 57.154 12.4674 57.6483 14.2834 57.8142C14.2834 57.8142 16.7345 57.8706 19.1694 57.8706C20.8871 57.8706 23.336 59.5144 26.5163 62.8022C28.2117 64.5539 30.5945 65.3617 32 65.3617C34.829 65.3617 35.9023 64.1027 38.0391 62.268C40.3306 60.2974 41.1368 57.6848 44.8322 57.8722C46.3502 57.9485 49.7182 57.8175 49.7182 57.8175C51.5342 57.6533 53.2932 57.1573 54.6515 55.7672C56.8062 53.5627 56.7427 50.3346 56.6873 47.4865C56.6564 45.8824 56.6238 44.2236 57.0163 43.2532C57.3746 42.3691 58.5065 41.266 59.601 40.201C61.6629 38.1939 64 35.918 64 32.6833C64 29.4487 61.6629 27.1728 59.601 25.1657L59.5994 25.1623ZM56.2231 36.5998C54.7606 38.023 53.2492 39.4944 52.4967 41.3522C51.715 43.2831 51.7573 45.4694 51.798 47.5827C51.8339 49.4405 51.8762 51.5456 51.184 52.2522C50.4902 52.9622 48.4202 52.929 46.5945 52.8991C44.5228 52.866 42.3795 52.8311 40.4902 53.6323C38.6726 54.4037 37.2329 55.943 35.8404 57.4326C34.5472 58.8144 33.0831 60.3803 31.9967 60.3803C30.9104 60.3803 29.4463 58.8144 28.1531 57.431C26.7606 55.9414 25.3208 54.402 23.5033 53.6307C21.9935 52.9904 20.3208 52.8825 18.6531 52.8825C18.2345 52.8825 17.816 52.8892 17.399 52.8958C15.5717 52.924 13.5016 52.9589 12.8094 52.2489C12.1189 51.5422 12.1596 49.4372 12.1971 47.5794C12.2378 45.466 12.2818 43.2798 11.4984 41.3473C10.7459 39.4911 9.23453 38.0197 7.77362 36.5964C6.4202 35.2777 4.88437 33.7831 4.88437 32.6767C4.88437 31.5703 6.41857 30.074 7.77362 28.757C9.23453 27.3337 10.7459 25.8624 11.4984 24.0045C12.2801 22.0737 12.2378 19.8874 12.1971 17.774C12.1612 15.9162 12.1189 13.8095 12.8111 13.1029C13.5049 12.3929 15.5749 12.4261 17.4007 12.4559C19.4739 12.4891 21.6156 12.5239 23.5049 11.7211C25.3225 10.9497 26.7622 9.41037 28.1547 7.92077C29.4479 6.53899 30.9121 4.97142 31.9984 4.97142C33.0847 4.97142 34.5505 6.53733 35.842 7.91911C37.2345 9.40871 38.6743 10.9481 40.4919 11.7194C42.3811 12.5206 44.5228 12.4858 46.5961 12.4543C48.4218 12.4244 50.4919 12.3912 51.1857 13.1012C51.8762 13.8079 51.8355 15.9145 51.7997 17.7707C51.759 19.884 51.715 22.0703 52.4984 24.0012C53.2508 25.8574 54.7622 27.3287 56.2231 28.752C57.5765 30.0707 59.1124 31.5653 59.1124 32.6717C59.1124 33.7781 57.5782 35.2744 56.2231 36.5915V36.5998Z" fill="#3ED973"/>
<path d="M31.9977 14.5659C22.3251 14.5659 14.457 22.6028 14.457 32.481C14.457 42.3591 22.3251 50.396 31.9977 50.396C41.6704 50.396 49.5385 42.3591 49.5385 32.481C49.5385 22.6028 41.6704 14.5659 31.9977 14.5659ZM31.9977 45.4196C25.0189 45.4196 19.343 39.6155 19.343 32.481C19.343 25.3465 25.0206 19.5423 31.9977 19.5423C38.9749 19.5423 44.6525 25.3465 44.6525 32.481C44.6525 39.6155 38.9749 45.4196 31.9977 45.4196Z" fill="#3ED973"/>
<path d="M34.8638 27.7866L30.4355 32.2969L29.1342 30.9715C28.1798 29.9994 26.6342 29.9994 25.6798 30.9715C24.7254 31.9435 24.7254 33.5177 25.6798 34.4898L28.7091 37.5752C29.1668 38.0413 29.7889 38.3034 30.4371 38.3034C31.0853 38.3034 31.7058 38.0413 32.1651 37.5752L38.3199 31.3066C39.2743 30.3345 39.2743 28.7603 38.3199 27.7882C37.3655 26.8162 35.8182 26.8162 34.8655 27.7882L34.8638 27.7866Z" fill="#3ED973"/>
</svg>
