<svg width="70" height="74" viewBox="0 0 70 74" fill="none" xmlns="http://www.w3.org/2000/svg">
<path d="M12.9447 46.6629C16.3559 46.6629 19.1212 43.9067 19.1212 40.5068C19.1212 37.1069 16.3559 34.3507 12.9447 34.3507C9.53353 34.3507 6.76822 37.1069 6.76822 40.5068C6.76822 43.9067 9.53353 46.6629 12.9447 46.6629Z" stroke="#34C565" stroke-width="4" stroke-linecap="round" stroke-linejoin="round"/>
<path d="M2.01913 59.1383V71.807H23.8716V59.1383C23.8716 56.6944 21.8903 54.7118 19.4464 54.7118H6.44433C4.0004 54.7118 2.01913 56.6931 2.01913 59.1383Z" stroke="#34C565" stroke-width="4" stroke-linecap="round" stroke-linejoin="round"/>
<path d="M12.9442 54.7118V60.6012" stroke="#34C565" stroke-width="4" stroke-linecap="round" stroke-linejoin="round"/>
<path d="M34.7973 46.6629C38.2084 46.6629 40.9738 43.9067 40.9738 40.5068C40.9738 37.1069 38.2084 34.3507 34.7973 34.3507C31.3861 34.3507 28.6208 37.1069 28.6208 40.5068C28.6208 43.9067 31.3861 46.6629 34.7973 46.6629Z" stroke="#34C565" stroke-width="4" stroke-linecap="round" stroke-linejoin="round"/>
<path d="M23.8712 59.1383V71.807H45.7223V59.1383C45.7223 56.6944 43.741 54.7118 41.2971 54.7118H28.295C25.8511 54.7118 23.8698 56.6931 23.8698 59.1383H23.8712Z" stroke="#34C565" stroke-width="4" stroke-linecap="round" stroke-linejoin="round"/>
<path d="M34.7972 54.7118V60.6012" stroke="#34C565" stroke-width="4" stroke-linecap="round" stroke-linejoin="round"/>
<path d="M56.6493 46.6629C60.0605 46.6629 62.8258 43.9067 62.8258 40.5068C62.8258 37.1069 60.0605 34.3507 56.6493 34.3507C53.2381 34.3507 50.4728 37.1069 50.4728 40.5068C50.4728 43.9067 53.2381 46.6629 56.6493 46.6629Z" stroke="#34C565" stroke-width="4" stroke-linecap="round" stroke-linejoin="round"/>
<path d="M45.7228 59.1383V71.807H67.5752V59.1383C67.5752 56.6944 65.594 54.7118 63.1501 54.7118H50.148C47.704 54.7118 45.7228 56.6931 45.7228 59.1383Z" stroke="#34C565" stroke-width="4" stroke-linecap="round" stroke-linejoin="round"/>
<path d="M56.6497 54.7118V60.6012" stroke="#34C565" stroke-width="4" stroke-linecap="round" stroke-linejoin="round"/>
<path d="M67.5887 2H2V17.695H8.28536L12.7609 25.9276L17.1004 17.695H30.3188L34.7943 25.9276L39.2699 17.695H52.3523L56.8278 25.9276L61.3033 17.695H67.5887V2Z" stroke="#34C565" stroke-width="4" stroke-linecap="round" stroke-linejoin="round"/>
</svg>
