<svg width="65" height="67" viewBox="0 0 65 67" fill="none" xmlns="http://www.w3.org/2000/svg">
<path d="M32.619 65.2894C49.6407 65.2894 63.4395 51.1804 63.4395 33.7761C63.4395 16.3719 49.6407 2.26294 32.619 2.26294C15.5974 2.26294 1.79858 16.3719 1.79858 33.7761C1.79858 51.1804 15.5974 65.2894 32.619 65.2894Z" stroke="white" stroke-width="3" stroke-miterlimit="10"/>
<path d="M32.6191 54.6976C43.9197 54.6976 53.0808 45.3307 53.0808 33.776C53.0808 22.2213 43.9197 12.8544 32.6191 12.8544C21.3184 12.8544 12.1573 22.2213 12.1573 33.776C12.1573 45.3307 21.3184 54.6976 32.6191 54.6976Z" stroke="white" stroke-width="3" stroke-miterlimit="10"/>
<path d="M32.6191 2.26282V12.8544" stroke="white" stroke-width="3" stroke-miterlimit="10"/>
<path d="M56.2289 13.5199L48.2936 20.3273" stroke="white" stroke-width="3" stroke-miterlimit="10"/>
<path d="M32.6191 54.6976V65.2892" stroke="white" stroke-width="3" stroke-miterlimit="10"/>
<path d="M32.6191 32.3376C35.3737 32.3376 37.6067 30.0544 37.6067 27.238C37.6067 24.4215 35.3737 22.1383 32.6191 22.1383C29.8646 22.1383 27.6316 24.4215 27.6316 27.238C27.6316 30.0544 29.8646 32.3376 32.6191 32.3376Z" stroke="white" stroke-width="3" stroke-miterlimit="10"/>
<path d="M40.0367 42.4061H25.202V36.6265C25.202 34.2571 27.0806 32.3375 29.3966 32.3375H35.8408C38.1581 32.3375 40.0354 34.2584 40.0354 36.6265V42.4061H40.0367Z" stroke="white" stroke-width="3" stroke-miterlimit="10"/>
</svg>
