<svg width="40" height="40" viewBox="0 0 40 40" fill="none" xmlns="http://www.w3.org/2000/svg">
<path d="M39.9441 5.66808C39.7925 5.20166 39.366 4.879 38.8761 4.85947L34.6924 4.69306L33.2416 0.76564C33.0712 0.305475 32.633 0 32.1423 0C31.6517 0 31.2134 0.305475 31.0431 0.76564L29.5922 4.69306L25.4085 4.85947C24.9187 4.879 24.4921 5.20166 24.3405 5.66808C24.189 6.1345 24.3437 6.64622 24.7288 6.95014L28.0156 9.54394L26.8812 13.5737C26.7484 14.0456 26.9234 14.5511 27.3203 14.8394C27.7172 15.1276 28.2516 15.1386 28.6594 14.8659L32.1415 12.5417L35.6237 14.8659C36.0315 15.1386 36.5659 15.1276 36.9628 14.8394C37.3596 14.5511 37.5347 14.0456 37.4018 13.5737L36.2674 9.54394L39.5542 6.95014C39.9394 6.64622 40.0941 6.1345 39.9425 5.66808H39.9441ZM33.8002 9.42597L34.2869 11.1557L32.7923 10.158C32.3986 9.89472 31.8853 9.89472 31.4915 10.158L29.9969 11.1557L30.4837 9.42597C30.6118 8.97049 30.4532 8.4822 30.0813 8.18844L28.6703 7.07514L30.4657 7.00404C30.9392 6.98529 31.354 6.68372 31.5189 6.23918L32.1415 4.55321L32.7642 6.23918C32.9283 6.68372 33.3439 6.98529 33.8174 7.00404L35.6127 7.07514L34.2017 8.18844C33.8299 8.48142 33.672 8.97049 33.8002 9.42597ZM31.6415 21.2504H21.3576C23.4296 10.9815 23.4382 11.3323 23.4382 10.7033C23.4382 8.76501 21.8608 7.18764 19.9224 7.18764C18.4794 7.18764 17.1606 8.09235 16.6411 9.43847L12.3761 20.4996C12.2035 20.9481 11.7636 21.2496 11.2824 21.2496H1.17191C0.525015 21.2496 0 21.7746 0 22.4215V38.8281C0 39.475 0.525015 40 1.17191 40H26.9539C28.4 40 29.6821 39.132 30.2188 37.7898C35.033 25.5317 35.1572 25.9552 35.1572 24.7653C35.1572 22.827 33.5799 21.2504 31.6415 21.2504ZM7.03145 37.657H2.34382V23.5942H7.03145V37.657ZM28.043 36.9203C27.8641 37.3679 27.4367 37.657 26.9539 37.657H9.37527V23.5942H11.2831C12.7261 23.5942 14.0441 22.6895 14.5637 21.3434L18.8287 10.2822C19.0013 9.833 19.4412 9.53144 19.9232 9.53144C20.5693 9.53144 21.0951 10.0572 21.0951 10.7033C21.0951 10.9315 21.1944 10.2963 18.7763 22.1817C18.624 22.9098 19.181 23.5981 19.9295 23.5942H31.6423C32.2884 23.5942 32.8142 24.12 32.8142 24.7661C32.8142 25.1958 32.922 24.6442 28.043 36.9203Z" fill="#34C565"/>
</svg>
