<svg width="50" height="44" viewBox="0 0 50 44" fill="none" xmlns="http://www.w3.org/2000/svg">
<path fill-rule="evenodd" clip-rule="evenodd" d="M29.1291 30.9908L19.9623 16.2594V15.0524H35.5432C36.16 15.0524 36.7313 14.7353 37.0407 14.221C37.3502 13.7066 37.3523 13.0713 37.0461 12.5549L34.0749 7.54118L37.0461 2.52745C37.3523 2.01105 37.3502 1.37573 37.0407 0.861418C36.7313 0.347109 36.161 0.0299683 35.5432 0.0299683H18.2311C17.2746 0.0299683 16.4999 0.776917 16.4999 1.69913V16.2594L1.16564 40.9004C0.844279 41.4157 0.836705 42.0584 1.144 42.5821C1.45129 43.1058 2.02691 43.4292 2.65015 43.4292H47.6617C48.3077 43.4292 48.8995 43.0828 49.1971 42.5309C49.4946 41.9791 49.4503 41.3125 49.0802 40.8034L36.9617 24.1118C36.6382 23.6653 36.108 23.4003 35.5432 23.4003C34.9784 23.4003 34.4493 23.6663 34.1247 24.1118L29.1291 30.9918V30.9908ZM19.9623 3.36829V11.7141H32.5601L30.5779 8.36951C30.2738 7.85624 30.2738 7.22613 30.5779 6.71286L32.5601 3.36829H19.9623ZM31.0799 34.1246L34.7923 40.0898H44.3367L35.5432 27.978L31.0799 34.1246ZM18.2311 19.966L30.7542 40.0898H5.70791L18.2311 19.966Z" fill="#00C4D1"/>
</svg>
