<svg width="63" height="63" viewBox="0 0 63 63" fill="none" xmlns="http://www.w3.org/2000/svg">
<path d="M58.044 47.817C59.157 46.536 59.85 44.877 59.85 43.05C59.85 38.997 56.553 35.7 52.5 35.7C48.447 35.7 45.15 38.997 45.15 43.05C45.15 44.877 45.843 46.536 46.956 47.817C43.995 49.665 42 52.941 42 56.7V57.75C42 60.6479 44.352 63 47.25 63H57.75C60.648 63 63 60.6479 63 57.75V56.7C63 52.941 61.005 49.686 58.044 47.817ZM49.35 43.05C49.35 41.307 50.757 39.9 52.5 39.9C54.243 39.9 55.65 41.307 55.65 43.05C55.65 44.793 54.243 46.2 52.5 46.2C50.757 46.2 49.35 44.793 49.35 43.05ZM58.8 57.75C58.8 58.3379 58.338 58.7999 57.75 58.7999H47.25C46.662 58.7999 46.2 58.3379 46.2 57.75V56.7C46.2 53.235 49.035 50.4 52.5 50.4C55.965 50.4 58.8 53.235 58.8 56.7V57.75Z" fill="#3ED973"/>
<path d="M16.044 47.817C17.157 46.536 17.85 44.877 17.85 43.05C17.85 38.997 14.553 35.7 10.5 35.7C6.447 35.7 3.15 38.997 3.15 43.05C3.15 44.877 3.843 46.536 4.956 47.817C1.995 49.665 0 52.941 0 56.7V57.75C0 60.6479 2.352 63 5.25 63H15.75C18.648 63 21 60.6479 21 57.75V56.7C21 52.941 19.005 49.686 16.044 47.817ZM7.35 43.05C7.35 41.307 8.757 39.9 10.5 39.9C12.243 39.9 13.65 41.307 13.65 43.05C13.65 44.793 12.243 46.2 10.5 46.2C8.757 46.2 7.35 44.793 7.35 43.05ZM16.8 57.75C16.8 58.3379 16.338 58.7999 15.75 58.7999H5.25C4.662 58.7999 4.2 58.3379 4.2 57.75V56.7C4.2 53.235 7.035 50.4 10.5 50.4C13.965 50.4 16.8 53.235 16.8 56.7V57.75Z" fill="#3ED973"/>
<path d="M42.8607 46.011C43.3227 44.961 42.8607 43.701 41.7897 43.239L33.5787 39.585V33.453C41.8527 32.424 48.2787 25.347 48.2787 16.8C48.2787 7.539 40.7397 0 31.4787 0C22.2177 0 14.6787 7.539 14.6787 16.8C14.6787 25.347 21.1047 32.424 29.3787 33.453V39.585L21.1677 43.239C20.1177 43.701 19.6347 44.961 20.0967 46.011C20.5797 47.061 21.8187 47.544 22.8687 47.082L31.4577 43.26L40.0467 47.082C40.3197 47.208 40.6137 47.271 40.9077 47.271C41.7057 47.271 42.4827 46.809 42.8397 46.032H42.8607V46.011ZM18.8997 16.8C18.8997 9.849 24.5487 4.2 31.4997 4.2C38.4507 4.2 44.0997 9.849 44.0997 16.8C44.0997 23.751 38.4507 29.4 31.4997 29.4C24.5487 29.4 18.8997 23.751 18.8997 16.8Z" fill="#3ED973"/>
<path d="M38.7662 11.6549C37.9682 10.8359 36.6242 10.8149 35.8052 11.6129L29.7572 17.5349L27.1952 15.0359C26.3762 14.2169 25.0322 14.2379 24.2342 15.0779C23.4152 15.9179 23.4362 17.2409 24.2762 18.0389L28.3082 21.9869C28.7072 22.386 29.2532 22.596 29.7782 22.596C30.3032 22.596 30.8282 22.4069 31.2482 21.9869L38.7662 14.6369C39.5852 13.8179 39.6062 12.4949 38.8082 11.6759H38.7662V11.6549Z" fill="#3ED973"/>
</svg>
