<svg width="82" height="71" viewBox="0 0 82 71" fill="none" xmlns="http://www.w3.org/2000/svg">
<path d="M0.863342 45.4797C0.863342 49.9024 4.49207 53.4479 8.97243 53.4844H30.5596C32.0408 53.4844 33.2627 52.2782 33.2627 50.8162C33.2627 49.3541 32.0408 48.1479 30.5596 48.1479H8.97243C7.49132 48.1479 6.2694 46.9417 6.2694 45.4797V12.8393L31.8556 27.5695C34.3735 28.995 37.4838 28.995 40.0017 27.5695L65.625 12.8027V21.502C65.625 22.964 66.8469 24.1702 68.328 24.1702C69.8091 24.1702 71.031 22.964 71.031 21.502V8.19726C71.031 3.77454 67.4023 0.229056 62.922 0.192505H8.97243C4.52909 0.265608 0.974426 3.81109 0.863342 8.19726V45.4797ZM8.93541 5.52901H62.8849C63.8476 5.52901 64.7363 6.04073 65.1806 6.88141L37.2617 22.964C36.41 23.4392 35.3733 23.4392 34.5587 22.964L6.63968 6.88141C7.12104 6.04073 7.97268 5.52901 8.93541 5.52901Z" fill="#34C565"/>
<path d="M80.0806 48.8929C82.3143 46.4622 82.2045 42.6851 79.8609 40.4039C79.0187 39.5812 77.9567 39.0577 76.7849 38.8333L69.2782 37.6366C69.2782 37.6366 68.9852 37.487 68.912 37.3374L65.6529 30.2321C64.2614 27.2404 60.7827 26.0064 57.8532 27.4274C56.6448 28.0258 55.6927 28.9981 55.1068 30.2321C54.0815 32.7751 52.8731 35.2433 51.4816 37.6366L43.9748 38.8333C40.7524 39.3943 38.5919 42.4981 39.1412 45.789C39.3243 46.9483 39.8736 48.0702 40.6792 48.9303L46.3184 54.839C46.3184 54.839 46.5015 55.1381 46.4649 55.2877L45.1466 63.4775C44.6706 66.7684 46.9043 69.7975 50.0901 70.2837C51.3351 70.4706 52.5802 70.2837 53.7153 69.6479L60.1602 65.9831C62.5404 67.0302 64.8473 68.2643 67.0444 69.6479C69.9007 71.2186 73.4527 70.0967 74.9906 67.2171C75.5765 66.0579 75.7962 64.749 75.6131 63.4775L74.2949 55.2877C74.2949 55.2877 74.2949 54.9511 74.4414 54.839L80.0806 48.9303V48.8929ZM70.5964 51.0245C69.3148 52.3708 68.7289 54.278 69.0218 56.1478L70.3401 64.3376C70.45 64.749 69.8641 65.123 69.6443 64.8986L63.1995 61.2337C61.4418 60.224 59.318 60.224 57.5603 61.2337L51.1154 64.8986C50.8591 65.0108 50.5662 64.8986 50.4563 64.6742C50.4197 64.562 50.3831 64.4498 50.4197 64.3376L51.7379 56.1478C52.0309 54.278 51.445 52.3708 50.1634 51.0245L44.5241 45.1159C44.341 44.8915 44.341 44.555 44.5241 44.368C44.5974 44.2932 44.6706 44.2558 44.7805 44.2184L52.2872 43.0217C54.228 42.7225 55.8758 41.4511 56.6814 39.656L59.9405 32.5507C60.0503 32.2889 60.3433 32.2142 60.563 32.2889C60.6728 32.3263 60.7461 32.4385 60.8193 32.5507L64.0784 39.656C64.884 41.4511 66.5318 42.7225 68.4726 43.0217L75.9793 44.2184C76.2723 44.2932 76.4554 44.5549 76.3821 44.8541C76.3821 44.9663 76.3089 45.0411 76.2357 45.1159L70.5964 51.0245Z" fill="#F2BE30"/>
</svg>
