<svg width="79" height="79" viewBox="0 0 79 79" fill="none" xmlns="http://www.w3.org/2000/svg">
<path d="M71.5506 31.998H71.5351C69.5416 32.0026 67.6684 32.7896 66.2643 34.2153C65.425 35.067 64.8155 36.0853 64.4606 37.1963H60.7328C60.29 33.0256 58.6591 29.2099 56.1888 26.0977L59.9521 22.3375C60.0076 22.2819 60.0585 22.2248 60.1064 22.1662C61.1494 22.7032 62.3097 22.9902 63.5132 22.9948C63.521 22.9948 63.5287 22.9948 63.5364 22.9948C65.5284 22.9948 67.3969 22.2202 68.7979 20.813C70.2051 19.3997 70.9719 17.5188 70.9581 15.5176C70.9442 13.5256 70.1557 11.6509 68.7377 10.2406C65.8061 7.32131 61.063 7.31514 58.1653 10.2252C55.8308 12.5689 55.3957 16.1023 56.8461 18.9136C56.789 18.9615 56.7334 19.0108 56.6794 19.0633L52.9393 22.8004C49.8302 20.2591 46.0021 18.5819 41.8145 18.1298V14.5362C42.9316 14.1783 43.9561 13.5611 44.8094 12.714C46.2289 11.3037 47.0081 9.42746 47.0035 7.43395C46.9988 5.44043 46.2119 3.56727 44.7862 2.16316C43.3713 0.76832 41.4951 0.00146484 39.5016 0.00146484H39.4846C35.3479 0.0107227 31.9888 3.35896 31.9981 7.46635C32.0058 10.7668 34.1845 13.5657 37.1856 14.5347V18.1375C33.0118 18.6004 29.1976 20.2792 26.1009 22.8158L22.3376 19.0494C22.282 18.9939 22.2249 18.9414 22.1648 18.8936C23.6074 16.0746 23.1584 12.5396 20.8131 10.2036C17.9031 7.30588 13.16 7.33211 10.2407 10.2637C7.32141 13.1954 7.31523 17.9385 10.2253 20.8362C11.6695 22.2742 13.5658 22.9917 15.4652 22.9917C16.6487 22.9917 17.8337 22.7124 18.9137 22.1554C18.9616 22.2125 19.0109 22.268 19.0634 22.3221L22.856 26.1178C20.3981 29.2222 18.7733 33.0241 18.3289 37.1778H14.5317C13.5581 34.1736 10.7514 31.998 7.44947 31.998H7.43404C3.32666 32.0057 -0.00923859 35.3787 1.92228e-05 39.5154C0.00464813 41.515 0.779218 43.3944 2.18486 44.8077C3.59205 46.2242 5.46059 47.0034 7.44947 47.0034H7.4649C10.7684 46.9957 13.5704 44.8124 14.5363 41.8051H18.3259C18.7671 45.9619 20.3888 49.7653 22.8437 52.8713L19.048 56.6639C18.9924 56.7195 18.94 56.7765 18.8921 56.8367C16.0731 55.394 12.5382 55.8415 10.2021 58.1884C7.30443 61.0984 7.33066 65.8415 10.2623 68.7608C11.7312 70.2235 13.6537 70.9549 15.5717 70.9549C17.4896 70.9549 19.3874 70.2297 20.8347 68.7762C23.1692 66.4324 23.6044 62.899 22.154 60.0877C22.2111 60.0415 22.2666 59.9905 22.3206 59.9381L26.087 56.1748C29.1837 58.7161 32.9995 60.3994 37.1748 60.8639V64.4713C34.166 65.448 31.9888 68.2609 31.9966 71.569C32.0058 75.6702 35.3695 79.0015 39.4985 79.0015H39.5154C41.5151 78.9968 43.3945 78.2207 44.8078 76.8166C46.2274 75.4063 47.0066 73.5301 47.0019 71.5366C46.9973 69.5431 46.2104 67.6699 44.7847 66.2658C43.933 65.4264 42.9146 64.8169 41.8037 64.4621V60.8731C45.9897 60.4241 49.8163 58.7485 52.9254 56.2118L56.6625 59.952C56.718 60.0075 56.7751 60.06 56.8353 60.1078C55.3926 62.9268 55.84 66.4618 58.1869 68.7978C59.5864 70.1927 61.4457 70.958 63.4253 70.958C63.4438 70.958 63.4623 70.958 63.4808 70.958C65.4728 70.9441 67.3475 70.1556 68.7578 68.7376C70.1681 67.3212 70.9488 65.4434 70.955 63.4514C70.9611 61.4502 70.1866 59.5724 68.7732 58.1652C66.4294 55.8307 62.8976 55.3956 60.0863 56.846C60.04 56.7889 59.9891 56.7333 59.9366 56.6793L56.1764 52.916C58.6483 49.8054 60.2823 45.9912 60.7297 41.8236H64.4668C64.8263 42.9377 65.4404 43.9576 66.2859 44.8077C67.6931 46.2242 69.5617 47.0034 71.5506 47.0034H71.566C75.6734 46.9941 79.0077 43.6212 78.9985 39.4845C78.9892 35.3524 75.6502 31.998 71.549 31.998H71.5506ZM61.4457 13.4916C61.9888 12.9454 62.7063 12.6739 63.4284 12.6739C64.1505 12.6739 64.905 12.9562 65.4713 13.521C66.019 14.0656 66.323 14.7877 66.3276 15.5515C66.3338 16.3076 66.0452 17.0158 65.516 17.5466C64.9899 18.0758 64.2863 18.3659 63.5333 18.3659C63.5302 18.3659 63.5271 18.3659 63.524 18.3659C62.7587 18.3643 62.0366 18.0619 61.4889 17.5172C60.3656 16.3986 60.3455 14.5933 61.4426 13.4916H61.4457ZM17.5173 17.508C16.3987 18.6313 14.5934 18.6513 13.4917 17.5543C12.3901 16.4572 12.4024 14.6504 13.5211 13.5287C14.6397 12.4054 16.445 12.3853 17.5467 13.4824C18.6483 14.5794 18.636 16.3862 17.5173 17.508ZM17.5544 65.5097C16.4573 66.6114 14.6505 66.5975 13.5288 65.4804C12.4055 64.3618 12.3854 62.5565 13.4825 61.4548C14.0256 60.9086 14.7431 60.637 15.4652 60.637C16.1873 60.637 16.9418 60.9194 17.5096 61.4841C18.6329 62.6028 18.653 64.4081 17.5559 65.5097H17.5544ZM61.4827 61.4919C62.0505 60.9225 62.7942 60.6355 63.5348 60.6355C64.2755 60.6355 64.9667 60.904 65.5083 61.4456C66.0391 61.9733 66.3292 62.6815 66.3276 63.4375C66.3245 64.2029 66.0236 64.925 65.479 65.4727C64.9343 66.0205 64.2122 66.3244 63.4484 66.3306C62.6908 66.3337 61.9842 66.0482 61.4534 65.519C60.3517 64.422 60.3656 62.6151 61.4827 61.4934V61.4919ZM39.4938 4.62883H39.5C40.27 4.62883 40.9921 4.92354 41.5352 5.45895C42.0737 5.98973 42.3715 6.69486 42.373 7.4432C42.3746 8.19154 42.0799 8.89822 41.5444 9.43055C41.0013 9.96904 40.2777 10.2668 39.5062 10.2699H39.5C37.9185 10.2699 36.6301 9.00932 36.627 7.45555C36.6239 5.90023 37.9108 4.63191 39.4954 4.62883H39.4938ZM7.45564 42.3729H7.44947C6.70267 42.3729 5.99908 42.0782 5.4683 41.5444C4.9298 41.0012 4.63047 40.2776 4.62892 39.5061C4.62584 37.9215 5.88799 36.63 7.4433 36.6269H7.44947C9.0017 36.6269 10.2669 37.9122 10.27 39.4938C10.2731 41.0784 9.01096 42.3698 7.45564 42.3729ZM41.5444 73.5316C41.0013 74.0701 40.2777 74.3679 39.5062 74.371H39.5C37.9185 74.371 36.6301 73.1104 36.627 71.5566C36.6239 70.0013 37.9108 68.733 39.4954 68.7299H39.5016C40.2715 68.7299 40.9936 69.0246 41.5367 69.56C42.0752 70.0908 42.373 70.796 42.3746 71.5443C42.3761 72.2926 42.0814 72.9978 41.546 73.5316H41.5444ZM39.5293 56.3646C30.3224 56.3646 22.8329 48.7994 22.8329 39.4999C22.8329 30.2005 30.3224 22.6353 39.5293 22.6353C48.7362 22.6353 56.2258 30.2005 56.2258 39.4999C56.2258 48.7994 48.7362 56.3646 39.5293 56.3646ZM71.5567 42.3729H71.5506C70.8038 42.3729 70.1002 42.0782 69.5694 41.5444C69.0309 41.0012 68.7316 40.2776 68.73 39.5061C68.7285 38.7346 69.0232 38.0094 69.5601 37.4632C70.0909 36.9247 70.796 36.6269 71.5444 36.6254H71.5506C73.1028 36.6254 74.368 37.9107 74.3711 39.4938C74.3742 41.0784 73.112 42.3698 71.5567 42.3729Z" fill="#34C565"/>
<path d="M42.0027 37.2148C40.489 36.6794 38.8211 36.0375 37.9215 35.3324C37.8428 35.2707 37.7302 34.9775 37.8104 34.5501C37.849 34.3464 38.0249 33.6675 38.6853 33.4685C40.0339 33.0627 40.9411 33.5873 41.2682 33.8326C42.2928 34.5979 43.7432 34.3881 44.5085 33.3651C45.2738 32.3421 45.0639 30.8917 44.0409 30.1264C43.6922 29.8656 42.876 29.3271 41.7111 28.9908V28.7485C41.7111 27.471 40.6742 26.4341 39.3966 26.4341C38.119 26.4341 37.0822 27.471 37.0822 28.7485V29.1296C35.118 29.8286 33.666 31.5521 33.2618 33.6953C32.8699 35.7737 33.5611 37.798 35.0655 38.9784C36.4881 40.094 38.5001 40.8902 40.4613 41.5829C41.6694 42.0104 41.7928 42.879 41.6833 43.5317C41.5259 44.4668 40.739 45.4789 39.3812 45.4882C37.7888 45.5005 37.4108 45.4404 36.2443 44.6766C35.175 43.9761 33.7401 44.277 33.0411 45.3463C32.3406 46.4155 32.6415 47.8505 33.7108 48.551C34.9791 49.3811 35.9805 49.7869 37.0822 49.9736V50.2467C37.0822 51.5243 38.119 52.5612 39.3966 52.5612C40.6742 52.5612 41.7111 51.5243 41.7111 50.2467V49.7252C44.2492 48.8318 45.8694 46.5513 46.2474 44.3001C46.7766 41.1494 45.0716 38.3041 42.0027 37.2194V37.2148Z" fill="#34C565"/>
</svg>
