<svg width="40" height="41" viewBox="0 0 40 41" fill="none" xmlns="http://www.w3.org/2000/svg">
<path d="M37.2496 15.7265C36.5656 15.0598 35.8581 14.3714 35.6342 13.8188C35.3878 13.2113 35.4082 12.1756 35.4285 11.1731C35.4632 9.39296 35.5028 7.37544 34.1572 5.9976C32.8084 4.61768 30.8245 4.64879 29.0757 4.67782C28.0934 4.69337 27.0776 4.70996 26.4831 4.45803C25.9406 4.22787 25.2657 3.50629 24.6132 2.80856C23.3825 1.49188 21.987 0 19.999 0C18.011 0 16.6164 1.49188 15.3858 2.80752C14.7333 3.50525 14.0584 4.22683 13.5159 4.45699C12.9224 4.70892 11.9055 4.69233 10.9243 4.67678C9.17447 4.64982 7.19157 4.61665 5.84283 5.99656C4.49613 7.3744 4.53583 9.39192 4.57044 11.172C4.58978 12.1746 4.61014 13.2113 4.36482 13.8178C4.14088 14.3704 3.43343 15.0598 2.74939 15.7254C1.46071 16.9809 0 18.4034 0 20.425C0 22.4467 1.46071 23.8691 2.74939 25.1236C3.43343 25.7902 4.14088 26.4786 4.36482 27.0312C4.61116 27.6387 4.5908 28.6755 4.57146 29.677C4.53685 31.4571 4.49715 33.4746 5.84385 34.8524C6.69279 35.7212 7.79214 36.0302 8.92712 36.1339C8.92712 36.1339 10.4591 36.1691 11.9809 36.1691C13.0544 36.1691 14.585 37.1965 16.5727 39.2514C17.6323 40.3462 19.1215 40.8511 20 40.8511C21.7681 40.8511 22.4389 40.0642 23.7744 38.9175C25.2066 37.6859 25.7105 36.053 28.0202 36.1701C28.9689 36.2178 31.0739 36.1359 31.0739 36.1359C32.2089 36.0333 33.3082 35.7233 34.1572 34.8545C35.5039 33.4767 35.4642 31.4591 35.4296 29.679C35.4102 28.6765 35.3899 27.6398 35.6352 27.0333C35.8591 26.4807 36.5666 25.7912 37.2506 25.1256C38.5393 23.8712 40 22.4487 40 20.4271C40 18.4054 38.5393 16.983 37.2506 15.7285L37.2496 15.7265ZM35.1395 22.8749C34.2254 23.7644 33.2807 24.684 32.8105 25.8451C32.3219 27.0519 32.3483 28.4184 32.3738 29.7392C32.3962 30.9003 32.4226 32.216 31.99 32.6576C31.5564 33.1014 30.2626 33.0806 29.1215 33.062C27.8267 33.0412 26.4872 33.0195 25.3064 33.5202C24.1704 34.0023 23.2706 34.9644 22.4002 35.8954C21.592 36.759 20.6769 37.7377 19.998 37.7377C19.319 37.7377 18.4039 36.759 17.5957 35.8944C16.7254 34.9634 15.8255 34.0013 14.6895 33.5192C13.7459 33.119 12.7005 33.0516 11.6582 33.0516C11.3966 33.0516 11.135 33.0557 10.8744 33.0599C9.73229 33.0775 8.43852 33.0993 8.0059 32.6556C7.57431 32.2139 7.59976 30.8983 7.62317 29.7371C7.64862 28.4163 7.6761 27.0498 7.18648 25.842C6.71621 24.6819 5.77158 23.7623 4.85851 22.8728C4.01262 22.0486 3.05273 21.1145 3.05273 20.4229C3.05273 19.7314 4.0116 18.7963 4.85851 17.9731C5.77158 17.0836 6.71621 16.164 7.18648 15.0028C7.67508 13.796 7.64862 12.4296 7.62317 11.1088C7.60077 9.94762 7.57431 8.63094 8.00692 8.18929C8.44055 7.74556 9.73432 7.76629 10.8754 7.78496C12.1712 7.80569 13.5098 7.82746 14.6906 7.32568C15.8265 6.84359 16.7264 5.88148 17.5967 4.95048C18.4049 4.08687 19.32 3.10714 19.999 3.10714C20.6779 3.10714 21.5941 4.08583 22.4013 4.94945C23.2716 5.88045 24.1714 6.84255 25.3074 7.32464C26.4882 7.82539 27.8268 7.80362 29.1226 7.78392C30.2636 7.76526 31.5574 7.74452 31.991 8.18825C32.4226 8.62991 32.3972 9.94658 32.3748 11.1067C32.3493 12.4275 32.3219 13.794 32.8115 15.0007C33.2818 16.1609 34.2264 17.0805 35.1395 17.97C35.9853 18.7942 36.9452 19.7283 36.9452 20.4198C36.9452 21.1113 35.9864 22.0465 35.1395 22.8697V22.8749Z" fill="#34C565"/>
<path d="M19.9986 9.10352C13.9532 9.10352 9.03564 14.1266 9.03564 20.3004C9.03564 26.4743 13.9532 31.4973 19.9986 31.4973C26.044 31.4973 30.9615 26.4743 30.9615 20.3004C30.9615 14.1266 26.044 9.10352 19.9986 9.10352ZM19.9986 28.3871C15.6368 28.3871 12.0894 24.7595 12.0894 20.3004C12.0894 15.8414 15.6378 12.2138 19.9986 12.2138C24.3593 12.2138 27.9078 15.8414 27.9078 20.3004C27.9078 24.7595 24.3593 28.3871 19.9986 28.3871Z" fill="#34C565"/>
<path d="M21.7899 17.3665L19.0222 20.1854L18.2089 19.357C17.6124 18.7495 16.6464 18.7495 16.0499 19.357C15.4534 19.9646 15.4534 20.9485 16.0499 21.556L17.9432 23.4843C18.2293 23.7757 18.6181 23.9395 19.0232 23.9395C19.4284 23.9395 19.8162 23.7757 20.1033 23.4843L23.95 19.5665C24.5465 18.9589 24.5465 17.9751 23.95 17.3675C23.3535 16.76 22.3864 16.76 21.791 17.3675L21.7899 17.3665Z" fill="#34C565"/>
</svg>
