<svg width="54" height="54" viewBox="0 0 54 54" fill="none" xmlns="http://www.w3.org/2000/svg">
<path d="M43.4963 42H43.5048C48.1962 42 52 45.9558 52 50.8347V52H35V50.8347C35 45.9558 38.8038 42 43.4952 42H43.4963Z" stroke="#F2BE30" stroke-width="3" stroke-linecap="round" stroke-linejoin="round"/>
<path d="M43.5 42C45.9853 42 48 40.2091 48 38C48 35.7909 45.9853 34 43.5 34C41.0147 34 39 35.7909 39 38C39 40.2091 41.0147 42 43.5 42Z" stroke="#F2BE30" stroke-width="3" stroke-linecap="round" stroke-linejoin="round"/>
<path d="M27.0035 42H26.9955C22.58 42 19 45.9558 19 50.8347V52H35V50.8347C35 45.9558 31.42 42 27.0045 42H27.0035Z" stroke="#F2BE30" stroke-width="3" stroke-linecap="round" stroke-linejoin="round"/>
<path d="M27 42C29.2091 42 31 40.2091 31 38C31 35.7909 29.2091 34 27 34C24.7909 34 23 35.7909 23 38C23 40.2091 24.7909 42 27 42Z" stroke="#F2BE30" stroke-width="3" stroke-linecap="round" stroke-linejoin="round"/>
<path d="M10.4958 42H10.5042C15.196 42 19 45.9558 19 50.8347V52H2V50.8347C2 45.9558 5.804 42 10.4958 42Z" stroke="#F2BE30" stroke-width="3" stroke-linecap="round" stroke-linejoin="round"/>
<path d="M10.5 42C12.9853 42 15 40.2091 15 38C15 35.7909 12.9853 34 10.5 34C8.01472 34 6 35.7909 6 38C6 40.2091 8.01472 42 10.5 42Z" stroke="#F2BE30" stroke-width="3" stroke-linecap="round" stroke-linejoin="round"/>
<path d="M40 8.88568C40 8.88568 38.5177 24.6039 27.0005 28C15.4823 24.6039 14 8.88568 14 8.88568C18.8926 8.2821 23.5052 5.90203 27.0005 2C30.4948 5.90203 35.1074 8.2821 40 8.88568Z" stroke="#F2BE30" stroke-width="3" stroke-linecap="round" stroke-linejoin="round"/>
<path d="M24 15.9502L26.6521 19L31 14" stroke="#F2BE30" stroke-width="3" stroke-linecap="round" stroke-linejoin="round"/>
</svg>
