<svg width="52" height="64" viewBox="0 0 52 64" fill="none" xmlns="http://www.w3.org/2000/svg">
<path d="M32.0921 8.03251C32.0921 4.70337 29.411 2.00366 26.1027 2.00366C22.7943 2.00366 20.1132 4.70243 20.1132 8.03251H14.1237V13.0558C14.1237 15.8193 16.3697 18.08 19.1142 18.08H33.0893C35.8347 18.08 38.0797 15.8193 38.0797 13.0558V8.03251H32.0903H32.0921Z" stroke="white" stroke-width="3" stroke-linecap="round" stroke-linejoin="round"/>
<path d="M32.0922 8.03247H45.0692C47.8137 8.03247 50.0606 10.2932 50.0606 13.0557V57.2651C50.0606 60.0286 47.8146 62.2893 45.0692 62.2893H7.13712C4.3926 62.2893 2.14667 60.0286 2.14667 57.2651V13.0557C2.14667 10.2922 4.3926 8.03247 7.13712 8.03247H20.1132" stroke="white" stroke-width="3" stroke-linecap="round" stroke-linejoin="round"/>
<path d="M30.096 36.1656V28.1274H22.1103V36.1656H14.1247V44.2037H22.1103V52.2419H30.096V44.2037H38.0816V36.1656H30.096Z" stroke="white" stroke-width="3" stroke-linecap="round" stroke-linejoin="round"/>
</svg>
