<svg width="66" height="66" viewBox="0 0 66 66" fill="none" xmlns="http://www.w3.org/2000/svg">
<path d="M37.1642 64H53.5198V54.9318L62.6795 41.3435C63.5402 40.0668 64 38.5666 64 37.0314V16.0656C64 13.9193 62.2404 12.1791 60.07 12.1791C57.8997 12.1791 56.1401 13.9193 56.1401 16.0656V32.0567C56.1401 33.4306 55.5879 34.7491 54.6054 35.7207L46.9705 43.2712" stroke="#039CD5" stroke-width="4" stroke-linecap="round" stroke-linejoin="round"/>
<path d="M37.1642 64V45.2359C37.1642 43.1785 38.0166 41.2055 39.5333 39.7511L48.7671 30.897C50.3465 29.3826 52.9077 29.3826 54.4871 30.897C56.0665 32.4115 56.0665 34.8674 54.4871 36.3819L47.2554 43.3162" stroke="#039CD5" stroke-width="4" stroke-linecap="round" stroke-linejoin="round"/>
<path d="M27.9104 64H12.1189V54.9318L3.27494 41.3435C2.44395 40.0668 2 38.5666 2 37.0314V16.0656C2 13.9193 3.69897 12.1791 5.79446 12.1791C7.88994 12.1791 9.58891 13.9193 9.58891 16.0656V32.0567C9.58891 33.4306 10.122 34.7491 11.0706 35.7207L18.4423 43.2712" stroke="#039CD5" stroke-width="4" stroke-linecap="round" stroke-linejoin="round"/>
<path d="M27.9105 64V45.2359C27.9105 43.1785 27.1007 41.2055 25.6598 39.7511L16.8877 30.897C15.3873 29.3826 12.9541 29.3826 11.4537 30.897C9.95326 32.4115 9.95326 34.8674 11.4537 36.3819L18.3238 43.3162" stroke="#039CD5" stroke-width="4" stroke-linecap="round" stroke-linejoin="round"/>
<path d="M33 6.51706L30.9229 4.50277C27.4819 1.16574 21.9025 1.16574 18.4614 4.50277C15.0203 7.8398 15.0203 13.2505 18.4614 16.5875L20.5385 18.6018L33 30.6866L45.4615 18.6018L47.5386 16.5875C50.9797 13.2505 50.9797 7.8398 47.5386 4.50277C44.0976 1.16574 38.5182 1.16574 35.0771 4.50277L33 6.51706Z" stroke="#039CD5" stroke-width="4" stroke-linecap="round" stroke-linejoin="round"/>
</svg>
