<svg width="43" height="40" viewBox="0 0 43 40" fill="none" xmlns="http://www.w3.org/2000/svg">
<path d="M31.6981 39.9998C31.5222 39.9998 31.3456 39.9643 31.1805 39.8942C30.7719 39.72 21.132 35.5216 21.132 26.8872V19.8113C21.132 19.2458 21.4911 18.744 22.0285 18.5607L31.2738 15.4157C31.5486 15.3224 31.8475 15.3224 32.1223 15.4157L41.3676 18.5607C41.905 18.744 42.2641 19.2458 42.2641 19.8113V26.8872C42.2641 35.5216 32.6242 39.72 32.2156 39.8958C32.0497 39.9643 31.8739 39.9998 31.6981 39.9998ZM23.7735 20.7573V26.8856C23.7735 32.7547 29.8597 36.2844 31.6981 37.2139C33.5364 36.2844 39.6226 32.7547 39.6226 26.8856V20.7573L31.6981 18.0613L23.7735 20.7573Z" fill="#34C565"/>
<path d="M18.8056 34.7161H4.88369C2.19004 34.7161 0 32.6781 0 30.1697V4.54642C0 2.03802 2.18921 0 4.88369 0H25.3049C27.9986 0 30.1886 2.03802 30.1886 4.54642V12.0136C30.1886 12.6978 29.5918 13.2535 28.8568 13.2535C28.1218 13.2535 27.5249 12.6978 27.5249 12.0136V4.54642C27.5249 3.4073 26.5286 2.47972 25.3049 2.47972H4.88369C3.66006 2.47972 2.66368 3.4073 2.66368 4.54642V30.1705C2.66368 31.3096 3.66006 32.2372 4.88369 32.2372H18.8056C19.5406 32.2372 20.1374 32.7928 20.1374 33.4771C20.1374 34.1613 19.5406 34.7169 18.8056 34.7169V34.7161Z" fill="#34C565"/>
<path d="M16.289 21.5094H6.60376C5.87487 21.5094 5.283 20.9176 5.283 20.1887C5.283 19.4598 5.87487 18.8679 6.60376 18.8679H16.289C17.0179 18.8679 17.6098 19.4598 17.6098 20.1887C17.6098 20.9176 17.0179 21.5094 16.289 21.5094Z" fill="#34C565"/>
<path d="M14.0249 27.5473H6.60376C5.87487 27.5473 5.283 26.9554 5.283 26.2265C5.283 25.4976 5.87487 24.9058 6.60376 24.9058H14.0249C14.7537 24.9058 15.3456 25.4976 15.3456 26.2265C15.3456 26.9554 14.7537 27.5473 14.0249 27.5473Z" fill="#34C565"/>
<path d="M29.8842 30.4331C30.1231 30.6746 30.4217 30.7833 30.7323 30.7833C31.0428 30.7833 31.3414 30.6626 31.5803 30.4331L35.761 26.2067C36.2268 25.7358 36.2268 24.975 35.761 24.5041C35.2951 24.0331 34.5426 24.0331 34.0768 24.5041L30.7442 27.8731L29.2033 26.3154C28.7375 25.8445 27.985 25.8445 27.5191 26.3154C27.0533 26.7863 27.0533 27.5471 27.5191 28.018L29.9081 30.4331H29.8842Z" fill="#34C565"/>
<path d="M9.74292 6.03784C9.09468 6.03784 8.57608 6.52492 8.57608 7.13377V9.13078H6.44984C5.8016 9.13078 5.283 9.61786 5.283 10.2267C5.283 10.8355 5.8016 11.3226 6.44984 11.3226H8.57608V13.3075C8.57608 13.9163 9.09468 14.4034 9.74292 14.4034C10.3912 14.4034 10.9098 13.9163 10.9098 13.3075V11.3226H13.023C13.6713 11.3226 14.1899 10.8355 14.1899 10.2267C14.1899 9.61786 13.6713 9.13078 13.023 9.13078H10.9098V7.14594C10.9098 6.5371 10.3912 6.05002 9.74292 6.05002V6.03784Z" fill="#34C565"/>
</svg>
