<svg width="86" height="87" viewBox="0 0 86 87" fill="none" xmlns="http://www.w3.org/2000/svg">
<path d="M78.432 68.1856C79.9986 66.3086 80.9412 63.9024 80.9412 61.2823C80.9412 55.2976 76.024 50.4282 69.9804 50.4282C63.9368 50.4282 59.0196 55.2976 59.0196 61.2823C59.0196 63.9024 59.9622 66.3086 61.5288 68.1856C59.5255 69.0589 57.7903 70.4315 56.4902 72.1448C55.1901 70.4315 53.4566 69.0589 51.4516 68.1856C53.0182 66.3086 53.9608 63.9024 53.9608 61.2823C53.9608 55.2976 49.0436 50.4282 43 50.4282C36.9564 50.4282 32.0392 55.2976 32.0392 61.2823C32.0392 63.9024 32.9818 66.3086 34.5484 68.1856C32.5451 69.0589 30.8099 70.4315 29.5098 72.1448C28.2097 70.4315 26.4762 69.0589 24.4712 68.1856C26.0378 66.3086 26.9804 63.9024 26.9804 61.2823C26.9804 55.2976 22.0632 50.4282 16.0196 50.4282C9.976 50.4282 5.05882 55.2976 5.05882 61.2823C5.05882 63.9024 6.00145 66.3086 7.568 68.1856C3.11624 70.126 0 76.3713 0 81.4877V84.4935C0 85.8761 1.13318 86.9983 2.52941 86.9983H83.4706C84.8668 86.9983 86 85.8761 86 84.4935V81.4877C86 76.3713 82.8838 70.126 78.432 68.1856ZM69.9804 54.5695C73.7189 54.5695 76.7592 57.5803 76.7592 61.2823C76.7592 64.9844 73.7189 67.9952 69.9804 67.9952C66.2419 67.9952 63.2016 64.9844 63.2016 61.2823C63.2016 57.5803 66.2419 54.5695 69.9804 54.5695ZM43 54.5695C46.7385 54.5695 49.7788 57.5803 49.7788 61.2823C49.7788 64.9844 46.7385 67.9952 43 67.9952C39.2615 67.9952 36.2212 64.9844 36.2212 61.2823C36.2212 57.5803 39.2615 54.5695 43 54.5695ZM16.0196 54.5695C19.7581 54.5695 22.7984 57.5803 22.7984 61.2823C22.7984 64.9844 19.7581 67.9952 16.0196 67.9952C12.2811 67.9952 9.24078 64.9844 9.24078 61.2823C9.24078 57.5803 12.2811 54.5695 16.0196 54.5695ZM4.07067 81.8718C4.07067 77.3548 7.78216 71.6773 12.3418 71.6773H19.694C24.2554 71.6773 27.9652 77.3548 27.9652 81.8718V82.7819H4.07067V81.8718ZM31.1944 81.8167C31.1944 77.3531 34.8604 71.7441 39.3678 71.7441H46.6339C51.1413 71.7441 54.8073 77.3531 54.8073 81.8167V82.7167H31.1944V81.8167ZM81.786 82.7151H58.1731V81.815C58.1731 77.3515 61.8391 71.7424 66.3465 71.7424H73.6126C78.12 71.7424 81.786 77.3515 81.786 81.815V82.7151Z" fill="#34C565"/>
<path d="M31.9197 21.8001L30.6331 29.2327C30.3819 30.6838 30.972 32.1232 32.176 32.9882C32.8556 33.4775 33.6515 33.7263 34.4525 33.7263C35.068 33.7263 35.6886 33.5793 36.2602 33.2804L43.0002 29.7704L49.7403 33.2804C51.0573 33.9651 52.6204 33.8532 53.8244 32.9882C55.0268 32.1232 55.6186 30.6838 55.3674 29.2327L54.0808 21.8001L59.5342 16.5367C60.5999 15.5097 60.9759 14.0002 60.5156 12.6008C60.0552 11.1998 58.8563 10.1979 57.3842 9.98747L49.8482 8.90372L46.4773 2.14077C45.8197 0.819904 44.4859 0 43.0002 0C41.5146 0 40.1808 0.819904 39.5231 2.14077L36.1523 8.90372L28.6163 9.98747C27.1442 10.1995 25.9453 11.2015 25.4849 12.6008C25.0246 14.0002 25.4023 15.5097 26.4663 16.5367L31.9197 21.8001ZM44.3223 25.6675C43.9075 25.4521 43.4539 25.3436 43.0002 25.3436C42.5466 25.3436 42.0913 25.4521 41.6782 25.6675L35.1608 29.0607L36.4052 21.8736C36.5637 20.9602 36.2568 20.0284 35.5874 19.3821L30.3144 14.2924L37.6025 13.2437C38.5282 13.1101 39.3292 12.534 39.7424 11.7041L43.0019 5.16489L46.2615 11.7041C46.6763 12.5357 47.4756 13.1101 48.4014 13.2437L55.6895 14.2924L50.4165 19.3821C49.747 20.0284 49.4401 20.9602 49.5986 21.8736L50.8431 29.0607L44.3257 25.6675H44.3223Z" fill="#34C565"/>
<path d="M5.28174 31.0645L4.33068 36.5567C4.09797 37.8959 4.64433 39.2234 5.7539 40.0233C6.86346 40.8215 8.3086 40.925 9.52272 40.2938L14.504 37.7005L19.4852 40.2938C20.013 40.5693 20.5847 40.7046 21.153 40.7046C21.8915 40.7046 22.6251 40.4758 23.2524 40.025C24.3619 39.2268 24.9083 37.8976 24.6756 36.5583L23.7245 31.0661L27.7547 27.177C28.7378 26.2285 29.0835 24.8375 28.6602 23.5451C28.237 22.2526 27.1291 21.3292 25.7717 21.1338L20.2019 20.3322L17.7113 15.3343C17.1042 14.1153 15.8749 13.3589 14.5023 13.3589C13.1297 13.3589 11.9004 14.1153 11.2933 15.3343L8.80268 20.3322L3.23291 21.1338C1.87546 21.3292 0.769268 22.2543 0.344327 23.5451C-0.0806146 24.8359 0.266758 26.2285 1.24986 27.177L5.28005 31.0661L5.28174 31.0645ZM9.9308 24.5336C10.9611 24.385 11.8515 23.7438 12.3135 22.8203L14.504 18.4253L16.6944 22.8203C17.1548 23.7455 18.0468 24.385 19.0772 24.5336L23.9758 25.2383L20.4312 28.6599C19.6859 29.3796 19.3453 30.4166 19.5206 31.4335L20.357 36.2644L15.9761 33.9834C15.0554 33.5041 13.9526 33.5041 13.0319 33.9834L8.65092 36.2644L9.48731 31.4335C9.66268 30.4166 9.32374 29.3796 8.57672 28.6599L5.03217 25.2383L9.9308 24.5336Z" fill="#34C565"/>
<path d="M57.3416 23.5434C56.9184 24.8359 57.2641 26.2269 58.2472 27.1754L62.2774 31.0645L61.3263 36.5567C61.0936 37.8959 61.64 39.2234 62.7495 40.0233C63.8591 40.8215 65.3042 40.925 66.5183 40.2938L71.4996 37.7005L76.4809 40.2938C77.0087 40.5693 77.5803 40.7046 78.1486 40.7046C78.8872 40.7046 79.6207 40.4758 80.248 40.025C81.3576 39.2268 81.9039 37.8976 81.6712 36.5583L80.7201 31.0661L84.7503 27.177C85.7334 26.2285 86.0791 24.8375 85.6559 23.5451C85.2326 22.2526 84.1247 21.3292 82.7673 21.1338L77.1992 20.3322L74.7086 15.3343C74.1015 14.1153 72.8722 13.3589 71.4996 13.3589C70.127 13.3589 68.8977 14.1153 68.2906 15.3343L65.8 20.3322L60.2302 21.1338C58.8728 21.3292 57.7649 22.2543 57.3416 23.5451V23.5434ZM66.9888 24.5737C68.0056 24.4268 68.8842 23.7955 69.3378 22.8838L71.4979 18.5488L73.658 22.8838C74.1133 23.7955 74.9919 24.4284 76.007 24.5737L80.8382 25.2684L77.3425 28.6432C76.6073 29.3529 76.2718 30.3765 76.4454 31.3784L77.27 36.1425L72.9498 33.8932C72.0409 33.4207 70.9549 33.4207 70.046 33.8932L65.7258 36.1425L66.5504 31.3784C66.7241 30.3765 66.3885 29.3529 65.6533 28.6432L62.1576 25.2684L66.9888 24.5737Z" fill="#34C565"/>
</svg>
