<svg width="51" height="68" viewBox="0 0 51 68" fill="none" xmlns="http://www.w3.org/2000/svg">
<path d="M34.8218 47.7824C32.5466 45.4653 28.8593 45.4653 26.584 47.7824L25.4431 48.9443L24.3022 47.7824C22.0269 45.4653 18.3396 45.4653 16.0644 47.7824C13.7891 50.0995 13.7891 53.8547 16.0644 56.1718L25.4431 65.7232L34.8218 56.1718C37.0971 53.856 37.0971 50.0995 34.8218 47.7824Z" stroke="white" stroke-width="3" stroke-miterlimit="10"/>
<path d="M2.11157 33.717C2.11157 30.4928 4.67894 27.8782 7.84492 27.8782H8.04271C11.2087 27.8782 13.7761 30.4928 13.7761 33.717C13.7761 30.4928 16.3434 27.8782 19.5094 27.8782H19.7072C22.8732 27.8782 25.4405 30.4928 25.4405 33.717C25.4405 30.4928 28.0079 27.8782 31.1739 27.8782H31.3717C34.5376 27.8782 37.105 30.4928 37.105 33.717C37.105 30.4928 39.6724 27.8782 42.8384 27.8782H43.0361C46.2021 27.8782 48.7695 30.4928 48.7695 33.717" stroke="white" stroke-width="3" stroke-miterlimit="10"/>
<path d="M35.0511 48.0306L48.7721 33.717V26.0225C48.7721 12.9001 38.3271 2.26294 25.4418 2.26294C12.5566 2.26427 2.11157 12.9015 2.11157 26.0239V33.7183L15.8339 48.0333" stroke="white" stroke-width="3" stroke-miterlimit="10"/>
<path d="M37.1063 33.717V21.9605C37.1063 11.0819 31.8838 2.26294 25.4418 2.26294C18.9998 2.26294 13.7773 11.0819 13.7773 21.9605V33.717" stroke="white" stroke-width="3" stroke-miterlimit="10"/>
<path d="M25.442 2.26428V33.717" stroke="white" stroke-width="3" stroke-miterlimit="10"/>
</svg>
