<svg width="63" height="63" viewBox="0 0 63 63" fill="none" xmlns="http://www.w3.org/2000/svg">
<path fill-rule="evenodd" clip-rule="evenodd" d="M42.1946 57.8713C42.1946 59.2311 42.7344 60.5346 43.6973 61.496C44.6587 62.4603 45.9622 62.9987 47.322 62.9987H50.8383C52.1981 62.9987 53.5016 62.4589 54.463 61.496C55.4273 60.5346 55.9657 59.2311 55.9657 57.8713V55.9662H57.8708C59.2306 55.9662 60.5341 55.4264 61.4956 54.4635C62.4598 53.5021 62.9982 52.1986 62.9982 50.8388V47.3225C62.9982 45.9627 62.4584 44.6592 61.4956 43.6978C60.5341 42.7335 59.2306 42.1951 57.8708 42.1951H55.9657V40.29C55.9657 38.9302 55.4259 37.6267 54.463 36.6652C53.5016 35.701 52.1981 35.1626 50.8383 35.1626H47.322C45.9622 35.1626 44.6587 35.7024 43.6973 36.6652C42.733 37.6267 42.1946 38.9302 42.1946 40.29V42.1951H40.2895C38.9297 42.1951 37.6262 42.7349 36.6648 43.6978C35.7005 44.6592 35.1621 45.9627 35.1621 47.3225V50.8388C35.1621 52.1986 35.7019 53.5021 36.6648 54.4635C37.6262 55.4278 38.9297 55.9662 40.2895 55.9662H42.1946V57.8713ZM46.5899 57.8713V53.7685C46.5899 52.5557 45.6051 51.5709 44.3923 51.5709H40.2895C40.0959 51.5709 39.909 51.4953 39.7703 51.3566C39.6316 51.2179 39.5561 51.0311 39.5561 50.8374V47.3211C39.5561 47.1275 39.6316 46.9407 39.7703 46.8019C39.909 46.6632 40.0959 46.5877 40.2895 46.5877H44.3923C45.6051 46.5877 46.5899 45.6028 46.5899 44.39V40.2873C46.5899 40.0936 46.6655 39.9068 46.8042 39.7681C46.9429 39.6293 47.1297 39.5538 47.3234 39.5538H50.8397C51.0333 39.5538 51.2201 39.6293 51.3589 39.7681C51.4976 39.9068 51.5731 40.0936 51.5731 40.2873V44.39C51.5731 45.6028 52.5579 46.5877 53.7708 46.5877H57.8735C58.0672 46.5877 58.254 46.6632 58.3927 46.8019C58.5315 46.9407 58.607 47.1275 58.607 47.3211V50.8374C58.607 51.0311 58.5315 51.2179 58.3927 51.3566C58.254 51.4953 58.0672 51.5709 57.8735 51.5709H53.7708C52.5579 51.5709 51.5731 52.5557 51.5731 53.7685V57.8713C51.5731 58.0649 51.4976 58.2517 51.3589 58.3905C51.2201 58.5292 51.0333 58.6047 50.8397 58.6047H47.3234C47.1297 58.6047 46.9429 58.5292 46.8042 58.3905C46.6655 58.2517 46.5899 58.0649 46.5899 57.8713Z" fill="#3ED973"/>
<path fill-rule="evenodd" clip-rule="evenodd" d="M34.2134 58.4701C33.3192 58.5607 32.4141 58.6047 31.5007 58.6047C16.5415 58.6047 4.39669 46.4585 4.39669 31.5007C4.39669 16.5429 16.5415 4.39532 31.4993 4.39532C46.4571 4.39532 58.6033 16.5415 58.6033 31.4993C58.6033 32.4141 58.5594 33.3192 58.4687 34.212C58.3492 35.4194 59.231 36.4949 60.4384 36.6144C61.6457 36.7339 62.7239 35.852 62.8434 34.6447C62.9464 33.6104 62.9986 32.5611 62.9986 31.4979C63 14.1145 48.8842 0 31.4993 0C14.1145 0 0 14.1145 0 31.4993C0 48.8842 14.1145 62.9986 31.4993 62.9986C32.5624 62.9986 33.6118 62.9464 34.6461 62.8434C35.8534 62.7239 36.7352 61.6443 36.6157 60.4384C36.4962 59.2324 35.4208 58.3492 34.2134 58.4687V58.4701Z" fill="#3ED973"/>
<path d="M32.044 26.117C33.157 24.836 33.85 23.177 33.85 21.35C33.85 17.297 30.553 14 26.5 14C22.447 14 19.15 17.297 19.15 21.35C19.15 23.177 19.843 24.836 20.956 26.117C17.995 27.965 16 31.241 16 35V36.05C16 38.948 18.352 41.3 21.25 41.3H31.75C34.648 41.3 37 38.948 37 36.05V35C37 31.241 35.005 27.986 32.044 26.117ZM23.35 21.35C23.35 19.607 24.757 18.2 26.5 18.2C28.243 18.2 29.65 19.607 29.65 21.35C29.65 23.093 28.243 24.5 26.5 24.5C24.757 24.5 23.35 23.093 23.35 21.35ZM32.8 36.05C32.8 36.638 32.338 37.1 31.75 37.1H21.25C20.662 37.1 20.2 36.638 20.2 36.05V35C20.2 31.535 23.035 28.7 26.5 28.7C29.965 28.7 32.8 31.535 32.8 35V36.05Z" fill="#3ED973"/>
</svg>
