<svg width="32" height="39" viewBox="0 0 32 39" fill="none" xmlns="http://www.w3.org/2000/svg">
<path d="M15.9994 38.2204C15.7219 38.2204 15.4469 38.1628 15.1919 38.0451C14.5707 37.7635 0 31.0106 0 17.1604V6.43398C0 5.53307 0.573728 4.73838 1.41369 4.47605L15.4131 0.0892421C15.7969 -0.0310495 16.2019 -0.0310495 16.5844 0.0892421L30.5838 4.47605C31.4263 4.73838 32 5.53307 32 6.43398V17.1604C32 31.0093 17.4293 37.7635 16.8081 38.0451C16.5519 38.1628 16.2769 38.2204 16.0006 38.2204H15.9994ZM3.99984 7.94914V17.1604C3.99984 26.7018 13.1782 32.3722 15.9969 33.8873C18.8105 32.3645 27.9989 26.6634 27.9989 17.1604V7.94914L15.9994 4.18683L3.99984 7.94914Z" fill="#34C565"/>
<path d="M14.6657 24.5699C14.1344 24.5699 13.6257 24.3537 13.252 23.9698L8.58591 19.1926C7.8047 18.3928 7.8047 17.0965 8.58591 16.2967C9.36713 15.4969 10.6333 15.4969 11.4146 16.2967L14.6144 19.5727L21.8679 11.5733C22.6204 10.7428 23.8841 10.6967 24.694 11.4645C25.5053 12.2349 25.5503 13.5313 24.8003 14.3579L16.1344 23.9134C15.7631 24.3204 15.2494 24.5571 14.7057 24.5687C14.6894 24.5712 14.6769 24.5712 14.6657 24.5712V24.5699Z" fill="#34C565"/>
</svg>
