<svg width="54" height="48" viewBox="0 0 54 48" fill="none" xmlns="http://www.w3.org/2000/svg">
<path d="M47.6686 19.779C47.6707 19.7777 47.6727 19.7761 47.6745 19.7743L53.0527 14.518C53.6705 13.9139 53.6715 12.9285 53.0548 12.3234C42.5845 2.05382 44.7545 4.18443 41.924 1.39309C41.3114 0.789058 40.3184 0.789058 39.707 1.39309L35.6796 5.36364C35.5229 5.51819 35.3054 5.63887 35.0379 5.73529C30.8924 7.22914 26.0742 5.09338 21.6712 5.26778C20.1043 5.32962 19.2911 5.34508 18.2156 4.67508C17.6762 4.32255 17.6856 4.2906 13.7942 0.453026C13.1817 -0.151009 12.1897 -0.151009 11.5772 0.453026C10.4807 1.53431 0.561299 11.2875 0.460955 11.3854C0.16515 11.6761 0 12.0709 0 12.4822C0 12.8934 0.16724 13.2872 0.462001 13.5779L4.74068 17.7735C5.3521 18.3731 5.84124 19.0674 5.98531 19.9116C6.01167 20.066 6.03576 20.2165 6.05723 20.3511C6.24718 21.5342 6.48972 23.0407 7.29154 24.4314C7.35588 24.543 7.33949 24.6847 7.24777 24.7752C5.40917 26.5883 5.40917 29.5219 7.24777 31.335C8.62349 32.6917 10.306 34.3509 11.6817 35.7076C13.0568 37.0636 14.7414 38.7243 16.1157 40.0812C17.4916 41.4381 19.1739 43.0977 20.5507 44.4537C21.5474 45.4366 22.8661 45.8786 24.1502 45.8053C25.2426 45.7429 26.4235 45.8717 27.2026 46.64C29.0412 48.4531 32.016 48.4531 33.8546 46.64C35.2313 45.2824 36.9121 43.6242 38.2896 42.2674C39.6648 40.9113 41.3484 39.25 42.7236 37.8939C44.0993 36.5372 45.7818 34.878 47.1575 33.5213C48.9919 31.7123 48.9919 28.7705 47.1575 26.9615C46.4391 26.2536 46.3408 25.144 46.6762 24.1928C47.3326 22.3311 47.2352 20.5534 47.6456 19.8069C47.653 19.7965 47.6603 19.7862 47.6686 19.779ZM33.9497 9.10507C33.9497 9.10479 33.9501 9.10465 33.9503 9.10485L43.6314 18.6519C44.1394 19.1529 44.3408 19.8752 44.2336 20.5805C44.0218 21.9741 42.5182 22.3823 41.5145 21.3925L33.8567 13.8407C32.0181 12.0276 29.0433 12.0276 27.2047 13.8407L22.7697 18.2143C22.1572 18.8183 21.1653 18.8183 20.5528 18.2143C19.9413 17.6113 19.9413 16.63 20.5528 16.028L24.9878 11.6545C27.5067 9.17037 30.9685 9.45992 33.9495 9.10538C33.9496 9.10536 33.9497 9.10523 33.9497 9.10507ZM7.36405 13.6735C6.71188 14.3166 5.66451 14.3181 5.01052 13.6768C4.34013 13.0195 4.33851 11.9409 5.00801 11.2826C6.91216 9.41033 9.59184 6.77537 11.5091 4.88916C12.1604 4.24838 13.2054 4.24905 13.8559 4.89059C14.5199 5.54537 14.5199 6.61675 13.8559 7.27152L7.36405 13.6735ZM11.6828 29.1467C11.0713 29.7497 10.0773 29.7497 9.46579 29.1467C8.85327 28.5427 8.85327 27.5645 9.46579 26.9604C10.3198 26.1183 10.7953 25.6493 11.6828 24.7742C12.2942 24.1712 13.2883 24.1712 13.8997 24.7742C14.5123 25.3782 14.5123 26.3564 13.8997 26.9604L11.6828 29.1467ZM16.1178 33.5203C15.5052 34.1243 14.5133 34.1243 13.9008 33.5203C13.2893 32.9173 13.2893 31.937 13.9008 31.334L16.1178 29.1477C16.7292 28.5447 17.7243 28.5447 18.3347 29.1477C18.9462 29.7507 18.9462 30.731 18.3347 31.334L16.1178 33.5203ZM18.3347 37.8928C17.7233 37.2898 17.7233 36.3096 18.3347 35.7066L20.5517 33.5203C21.1642 32.9163 22.1562 32.9163 22.7687 33.5203C23.3812 34.1243 23.3812 35.1025 22.7687 35.7066L20.5517 37.8928C19.9402 38.4958 18.9452 38.4958 18.3347 37.8928ZM27.2047 40.0791L24.9878 42.2654C24.3752 42.8694 23.3833 42.8694 22.7708 42.2654C22.1593 41.6624 22.1593 40.6821 22.7708 40.0791L24.9878 37.8928C25.5992 37.2898 26.5933 37.2909 27.2047 37.8928C27.8152 38.4958 27.8152 39.4771 27.2047 40.0791ZM31.6387 44.4522C31.6387 44.4525 31.6386 44.4528 31.6383 44.453C31.0258 45.0567 30.0341 45.0566 29.4217 44.4527C28.8117 43.8512 28.8117 42.8669 29.4217 42.2654C29.9747 41.72 30.9141 41.5509 31.4671 42.0962L31.6387 42.2654C32.2511 42.8693 32.2512 43.8472 31.6391 44.4513C31.6388 44.4515 31.6387 44.4518 31.6387 44.4522ZM44.9437 31.3325C44.943 31.3328 44.9423 31.3333 44.9418 31.3338C44.3303 31.936 43.3369 31.9357 42.7257 31.333L35.1319 23.8444C34.5194 23.2404 33.5264 23.2404 32.9149 23.8444C32.3035 24.4484 32.3024 25.4277 32.9149 26.0307L40.5087 33.5193C41.1202 34.1223 41.1202 35.1025 40.5087 35.7055C39.8962 36.3096 38.9053 36.3096 38.2917 35.7055L30.7973 28.3149C30.1847 27.7108 29.1918 27.7108 28.5803 28.3149C27.9688 28.9189 27.9678 29.8981 28.5803 30.5011L36.0758 37.8928C36.6872 38.4958 36.6872 39.4761 36.0758 40.0791C35.4643 40.6821 34.4703 40.6821 33.8588 40.0791L29.4238 35.7055C28.0471 34.3479 26.3655 32.6906 24.9888 31.333C23.6137 29.9769 21.9291 28.3163 20.5548 26.9594C20.5466 26.9512 20.5383 26.9431 20.53 26.935C19.1464 25.5876 17.4952 23.9427 16.1209 22.5858C15.0099 21.4902 13.4772 21.0589 12.0337 21.2911C10.7918 21.4908 9.35711 21.1066 9.15848 19.8646C8.88737 18.177 9.2113 16.2275 10.4283 15.0273L14.7014 10.8134C16.5098 9.03002 19.2608 8.45848 21.7987 8.35804C21.9951 8.35024 22.1902 8.34251 22.385 8.33708C22.9766 8.3206 23.1932 9.05056 22.7718 9.46612L18.3368 13.8397C16.5035 15.6477 16.5035 18.5905 18.3368 20.3996C20.1754 22.2127 23.1502 22.2127 24.9888 20.3996L29.4238 16.026C30.0363 15.4219 31.0283 15.4219 31.6408 16.026L44.9447 29.1457C45.5559 29.7484 45.5562 30.7291 44.9456 31.3311C44.945 31.3317 44.9444 31.3321 44.9437 31.3325ZM37.3049 8.03953C37.3046 8.03953 37.3045 8.03915 37.3047 8.03899C37.693 7.77162 37.6576 7.79127 40.0016 5.47575C40.4524 5.0305 41.1769 5.03081 41.6284 5.47531C42.1741 6.01266 43.0676 6.88829 47.9379 11.6647C48.9153 12.6233 48.92 14.2037 47.941 15.1608C46.9889 16.0916 45.4667 16.0882 44.5187 15.1533L37.3051 8.03961C37.305 8.03956 37.3049 8.03953 37.3049 8.03953Z" fill="#00C4D1"/>
</svg>
