<svg width="58" height="44" viewBox="0 0 58 44" fill="none" xmlns="http://www.w3.org/2000/svg">
<path d="M18.8127 13.413C18.8127 17.0151 15.819 19.9355 12.1266 19.9355C8.43414 19.9355 5.44043 17.0151 5.44043 13.413C5.44043 9.811 8.43414 6.89056 12.1266 6.89056C15.819 6.89056 18.8127 9.811 18.8127 13.413Z" stroke="#34C565" stroke-width="4" stroke-linecap="round" stroke-linejoin="round"/>
<path d="M38.8714 9.06501C38.8714 12.667 35.8777 15.5875 32.1853 15.5875C28.4929 15.5875 25.4991 12.667 25.4991 9.06501C25.4991 5.46298 28.4929 2.54254 32.1853 2.54254C35.8777 2.54254 38.8714 5.46298 38.8714 9.06501Z" stroke="#34C565" stroke-width="4" stroke-linecap="round" stroke-linejoin="round"/>
<path d="M22.141 29.4282C21.9814 24.1605 17.5652 19.9355 12.1268 19.9355C6.68852 19.9355 2.09766 24.3162 2.09766 29.7192V41.6774" stroke="#34C565" stroke-width="4" stroke-linecap="round" stroke-linejoin="round"/>
<path d="M55.8098 13.413L34.6373 34.0672L29.0653 28.6315L15.6931 41.6764H2.09766" stroke="#34C565" stroke-width="4" stroke-linecap="round" stroke-linejoin="round"/>
<path d="M32.1852 15.5875C26.6466 15.5875 22.156 19.9681 22.156 25.3712V35.3726L29.0653 28.6324L34.6373 34.0681L42.2152 26.6757V25.3712C42.2152 19.9681 37.7246 15.5875 32.186 15.5875H32.1852Z" stroke="#34C565" stroke-width="4" stroke-linecap="round" stroke-linejoin="round"/>
<path d="M49.124 13.413H55.8101V19.9355" stroke="#34C565" stroke-width="4" stroke-linecap="round" stroke-linejoin="round"/>
</svg>
