<svg width="76" height="76" viewBox="0 0 76 76" fill="none" xmlns="http://www.w3.org/2000/svg">
<path d="M11.1328 8.98035C9.90672 8.98035 8.90625 9.98082 8.90625 11.2069C8.90625 12.433 9.90672 13.4335 11.1328 13.4335C12.3589 13.4335 13.3594 12.433 13.3594 11.2069C13.3594 9.98082 12.3589 8.98035 11.1328 8.98035Z" fill="#F6C94F"/>
<path d="M20.0391 8.98035C18.813 8.98035 17.8125 9.98082 17.8125 11.2069C17.8125 12.433 18.813 13.4335 20.0391 13.4335C21.2652 13.4335 22.2656 12.433 22.2656 11.2069C22.2656 9.98082 21.2652 8.98035 20.0391 8.98035Z" fill="#F6C94F"/>
<path d="M28.9453 8.98035C27.7192 8.98035 26.7188 9.98082 26.7188 11.2069C26.7188 12.433 27.7192 13.4335 28.9453 13.4335C30.1714 13.4335 31.1719 12.433 31.1719 11.2069C31.1719 9.98082 30.1714 8.98035 28.9453 8.98035Z" fill="#F6C94F"/>
<path d="M11.1328 26.9413C9.90672 26.9413 8.90625 27.9418 8.90625 29.1678C8.90625 30.3939 9.90672 31.3944 11.1328 31.3944C12.3589 31.3944 13.3594 30.3939 13.3594 29.1678C13.3594 27.9418 12.3589 26.9413 11.1328 26.9413Z" fill="#F6C94F"/>
<path d="M20.0391 26.9413C18.813 26.9413 17.8125 27.9418 17.8125 29.1678C17.8125 30.3939 18.813 31.3944 20.0391 31.3944C21.2652 31.3944 22.2656 30.3939 22.2656 29.1678C22.2656 27.9418 21.2652 26.9413 20.0391 26.9413Z" fill="#F6C94F"/>
<path d="M28.9453 26.9413C27.7192 26.9413 26.7188 27.9418 26.7188 29.1678C26.7188 30.3939 27.7192 31.3944 28.9453 31.3944C30.1714 31.3944 31.1719 30.3939 31.1719 29.1678C31.1719 27.9418 30.1714 26.9413 28.9453 26.9413Z" fill="#F6C94F"/>
<path d="M11.1328 44.9022C9.90672 44.9022 8.90625 45.9027 8.90625 47.1288C8.90625 48.3549 9.90672 49.3553 11.1328 49.3553C12.3589 49.3553 13.3594 48.3549 13.3594 47.1288C13.3594 45.9027 12.3589 44.9022 11.1328 44.9022Z" fill="#F6C94F"/>
<path d="M20.0391 44.9022C18.813 44.9022 17.8125 45.9027 17.8125 47.1288C17.8125 48.3549 18.813 49.3553 20.0391 49.3553C21.2652 49.3553 22.2656 48.3549 22.2656 47.1288C22.2656 45.9027 21.2652 44.9022 20.0391 44.9022Z" fill="#F6C94F"/>
<path d="M28.9453 44.9022C27.7192 44.9022 26.7188 45.9027 26.7188 47.1288C26.7188 48.3549 27.7192 49.3553 28.9453 49.3553C30.1714 49.3553 31.1719 48.3549 31.1719 47.1288C31.1719 45.9027 30.1714 44.9022 28.9453 44.9022Z" fill="#F6C94F"/>
<path d="M74.6908 34.7819L57.8906 27.1834V2.22656C57.8906 0.9975 56.8931 0 55.6641 0H2.22656C0.9975 0 0 0.9975 0 2.22656V56.1094C0 57.3384 0.9975 58.3359 2.22656 58.3359L36.713 58.287C36.713 58.287 37.7388 61.419 39.0999 63.0934C39.2751 63.3086 40.2088 64.5777 41.7762 65.8602C46.2368 69.5074 54.4781 75.5488 54.4781 75.5488C54.8759 75.8486 55.3479 75.9985 55.8214 75.9985C56.2949 75.9985 56.767 75.8486 57.1648 75.5473L69.7552 66.0206C73.8417 62.9286 76 57.8624 76 51.3683V36.8066C76 35.9323 75.4879 35.1381 74.6908 34.7774V34.7819ZM36.9342 34.7789C36.4206 35.012 36.0258 35.4246 35.8105 35.9219H4.45312V22.4141H53.4375V27.317L36.9342 34.7789ZM4.45312 4.45313H53.4375V17.9609H4.45312V4.45313ZM4.45312 40.375H35.625V51.3653C35.625 52.2307 35.6651 53.0694 35.7408 53.8813H4.45312V40.3735V40.375ZM71.5469 51.3713C71.5469 56.4879 70.0402 60.2226 67.0685 62.4714L55.8214 70.9813L44.5639 62.4714C42.511 60.9202 41.1573 58.6595 40.5145 55.7279C40.5056 55.6804 40.4967 55.6329 40.4848 55.5854C40.2162 54.3044 40.0796 52.8972 40.0796 51.3668V38.2449L55.814 31.1303L71.5484 38.2464V51.3713H71.5469Z" fill="#F6C94F"/>
<path d="M54.6782 50.9525L52.5645 48.8388C51.6946 47.9689 50.2845 47.9689 49.4161 48.8388C48.5477 49.7086 48.5463 51.1188 49.4161 51.9872L53.1033 55.6743C53.5382 56.1093 54.1082 56.326 54.6782 56.326C55.2482 56.326 55.8182 56.1093 56.2531 55.6743L63.9585 47.9689C64.8284 47.0991 64.8284 45.6889 63.9585 44.8206C63.0887 43.9522 61.6785 43.9507 60.8102 44.8206L54.6797 50.9511L54.6782 50.9525Z" fill="#F6C94F"/>
</svg>
