<svg width="89" height="78" viewBox="0 0 89 78" fill="none" xmlns="http://www.w3.org/2000/svg">
<path d="M60.8986 2C54.7092 2 49.0384 4.2578 44.6314 8.00555C40.2245 4.2578 34.5537 2 28.3643 2C14.336 2 2.96509 13.5849 2.96509 27.8732C2.96509 33.9721 5.18499 39.4616 8.50274 44.0019C14.7907 52.6069 44.6314 75 44.6314 75C44.6314 75 74.4722 52.6069 80.7601 44.0019C84.0779 39.4616 86.2978 33.9721 86.2978 27.8732C86.2978 13.5831 74.9269 2 60.8986 2Z" stroke="#34C565" stroke-width="4" stroke-miterlimit="10"/>
<path d="M25.9556 36.5786C31.6675 36.5786 36.2979 31.8618 36.2979 26.0433C36.2979 20.2248 31.6675 15.5081 25.9556 15.5081C20.2438 15.5081 15.6134 20.2248 15.6134 26.0433C15.6134 31.8618 20.2438 36.5786 25.9556 36.5786Z" stroke="#34C565" stroke-width="4" stroke-miterlimit="10"/>
<path d="M38.7666 47.2688C37.5737 41.1717 32.2902 36.5786 25.9555 36.5786C18.7408 36.5786 12.892 42.5366 12.892 49.8859" stroke="#34C565" stroke-width="4" stroke-miterlimit="10"/>
<path d="M63.307 36.5786C69.0188 36.5786 73.6492 31.8618 73.6492 26.0433C73.6492 20.2248 69.0188 15.5081 63.307 15.5081C57.5951 15.5081 52.9647 20.2248 52.9647 26.0433C52.9647 31.8618 57.5951 36.5786 63.307 36.5786Z" stroke="#34C565" stroke-width="4" stroke-miterlimit="10"/>
<path d="M50.4958 47.2684C51.6888 41.1713 56.9723 36.5764 63.307 36.5764C70.5216 36.5764 76.3705 42.5344 76.3705 49.8837" stroke="#34C565" stroke-width="4" stroke-miterlimit="10"/>
<path d="M44.6318 45.8547C50.3437 45.8547 54.974 41.1379 54.974 35.3194C54.974 29.501 50.3437 24.7842 44.6318 24.7842C38.9199 24.7842 34.2896 29.501 34.2896 35.3194C34.2896 41.1379 38.9199 45.8547 44.6318 45.8547Z" stroke="#34C565" stroke-width="4" stroke-miterlimit="10"/>
<path d="M57.6947 64.9454V59.1618C57.6947 51.8125 51.8458 45.8545 44.6312 45.8545C37.4165 45.8545 31.5676 51.8125 31.5676 59.1618V64.9454" stroke="#34C565" stroke-width="4" stroke-miterlimit="10"/>
</svg>
