<svg width="34" height="42" viewBox="0 0 34 42" fill="none" xmlns="http://www.w3.org/2000/svg">
<path d="M16.6175 27.9988C22.7244 27.9988 27.6958 22.973 27.6958 16.7992C27.6958 10.6254 22.7244 5.59961 16.6175 5.59961C10.5106 5.59961 5.53915 10.6254 5.53915 16.7992C5.53915 22.973 10.5106 27.9988 16.6175 27.9988ZM16.6175 8.39951C21.2011 8.39951 24.9262 12.1654 24.9262 16.7992C24.9262 21.4331 21.2011 25.1989 16.6175 25.1989C12.0338 25.1989 8.30874 21.4331 8.30874 16.7992C8.30874 12.1654 12.0338 8.39951 16.6175 8.39951Z" fill="#34C565"/>
<path d="M14.5957 20.2432C14.8727 20.5232 15.2189 20.6492 15.5789 20.6492C15.939 20.6492 16.2852 20.5092 16.5621 20.2432L21.4089 15.3434C21.949 14.7974 21.949 13.9154 21.4089 13.3694C20.8688 12.8235 19.9964 12.8235 19.4563 13.3694L15.5928 17.2753L13.8064 15.4694C13.2663 14.9234 12.3939 14.9234 11.8538 15.4694C11.3138 16.0154 11.3138 16.8973 11.8538 17.4433L14.6234 20.2432H14.5957Z" fill="#34C565"/>
<path d="M33.235 16.7994C33.235 7.53173 25.7848 0 16.6175 0C7.45018 0 0 7.53173 0 16.7994C0 21.7552 2.14643 26.2071 5.53916 29.287V40.5986C5.53916 41.0326 5.74688 41.4525 6.09308 41.7185C6.43928 41.9845 6.89626 42.0685 7.3117 41.9425L16.6313 39.2546L25.951 41.9425C26.0756 41.9845 26.2002 41.9985 26.3249 41.9985C26.6157 41.9985 26.9203 41.9005 27.1558 41.7185C27.5019 41.4525 27.7097 41.0466 27.7097 40.5986V29.287C31.1024 26.2071 33.2488 21.7552 33.2488 16.7994H33.235ZM2.76958 16.7994C2.76958 9.08568 8.98729 2.7999 16.6175 2.7999C24.2477 2.7999 30.4654 9.08568 30.4654 16.7994C30.4654 24.5131 24.2477 30.7989 16.6175 30.7989C8.98729 30.7989 2.76958 24.5131 2.76958 16.7994ZM8.30875 31.3309C10.3721 32.5489 12.7262 33.3188 15.2327 33.5288V36.7487L8.30875 38.7506V31.3309ZM24.9262 38.7506L18.0023 36.7487V33.5288C20.5088 33.3188 22.8629 32.5349 24.9262 31.3309V38.7506Z" fill="#34C565"/>
</svg>
