<svg width="54" height="54" viewBox="0 0 54 54" fill="none" xmlns="http://www.w3.org/2000/svg">
<path d="M48.3967 21.8726H48.3862C47.0378 21.8758 45.7708 22.4137 44.8211 23.3883C44.2533 23.9706 43.8411 24.6667 43.601 25.4261H41.0796C40.78 22.5751 39.6769 19.9667 38.006 17.8392L40.5515 15.2688C40.589 15.2308 40.6235 15.1918 40.6558 15.1517C41.3613 15.5187 42.1462 15.7149 42.9602 15.7181C42.9655 15.7181 42.9707 15.7181 42.9759 15.7181C44.3233 15.7181 45.5871 15.1886 46.5348 14.2266C47.4866 13.2605 48.0053 11.9747 47.9959 10.6067C47.9865 9.245 47.4532 7.96346 46.4941 6.99941C44.5111 5.0038 41.3029 4.99958 39.3429 6.98886C37.7638 8.59105 37.4695 11.0065 38.4506 12.9282C38.412 12.9609 38.3744 12.9947 38.3379 13.0305L35.808 15.5852C33.705 13.848 31.1157 12.7015 28.2832 12.3924V9.93587C29.0388 9.69116 29.7318 9.26926 30.309 8.69019C31.2691 7.72614 31.7962 6.44355 31.7931 5.08079C31.7899 3.71804 31.2577 2.43756 30.2933 1.47772C29.3363 0.524217 28.0672 0 26.7188 0H26.7073C23.9092 0.00632858 21.6372 2.29516 21.6435 5.10294C21.6487 7.35908 23.1223 9.27242 25.1522 9.93481V12.3977C22.3291 12.7141 19.7492 13.8617 17.6546 15.5957L15.1091 13.0211C15.0715 12.9831 15.0329 12.9472 14.9922 12.9145C15.968 10.9875 15.6643 8.57101 14.078 6.97409C12.1096 4.99325 8.9014 5.01118 6.92679 7.01523C4.95218 9.01928 4.94801 12.2616 6.91635 14.2425C7.89322 15.2255 9.17588 15.716 10.4606 15.716C11.2611 15.716 12.0626 15.5251 12.7932 15.1443C12.8256 15.1833 12.859 15.2213 12.8944 15.2582L15.4598 17.8529C13.7972 19.9751 12.6982 22.574 12.3977 25.4135H9.82921C9.17066 23.3598 7.27224 21.8726 5.03881 21.8726H5.02837C2.25015 21.8779 -0.00624896 24.1836 1.30022e-05 27.0114C0.00314399 28.3784 0.527062 29.6631 1.47784 30.6293C2.42966 31.5975 3.69353 32.1302 5.03881 32.1302H5.04925C7.28372 32.1249 9.17901 30.6324 9.83234 28.5767H12.3956C12.6941 31.4182 13.7909 34.0182 15.4514 36.1415L12.884 38.7341C12.8464 38.772 12.811 38.8111 12.7786 38.8522C10.8718 37.866 8.4808 38.1719 6.9007 39.7762C4.9407 41.7655 4.95845 45.0078 6.9414 47.0034C7.93497 48.0033 9.23537 48.5033 10.5326 48.5033C11.8299 48.5033 13.1136 48.0075 14.0926 47.014C15.6716 45.4118 15.9659 42.9964 14.9849 41.0746C15.0235 41.0429 15.0611 41.0081 15.0976 40.9723L17.6452 38.3997C19.7398 40.1369 22.3208 41.2877 25.1449 41.6051V44.0712C23.1098 44.7388 21.6372 46.6617 21.6424 48.9231C21.6487 51.7266 23.9239 54.0039 26.7167 54.0039H26.7282C28.0808 54.0007 29.3519 53.4702 30.3079 52.5103C31.2681 51.5463 31.7951 50.2637 31.792 48.9009C31.7889 47.5382 31.2566 46.2577 30.2923 45.2979C29.7162 44.7241 29.0274 44.3074 28.2759 44.0648V41.6115C31.1074 41.3045 33.6957 40.1591 35.7986 38.425L38.3264 40.9818C38.3639 41.0197 38.4026 41.0556 38.4433 41.0883C37.4674 43.0154 37.7701 45.4318 39.3575 47.0287C40.3041 47.9822 41.5617 48.5054 42.9007 48.5054C42.9133 48.5054 42.9258 48.5054 42.9383 48.5054C44.2857 48.4959 45.5537 47.9569 46.5076 46.9876C47.4615 46.0193 47.9896 44.7357 47.9938 43.374C47.998 42.0059 47.4741 40.7223 46.5181 39.7604C44.9328 38.1645 42.5438 37.8671 40.6423 38.8585C40.611 38.8195 40.5765 38.7815 40.541 38.7446L37.9976 36.1721C39.6696 34.0457 40.7748 31.4383 41.0775 28.5894H43.6052C43.8484 29.3509 44.2638 30.0481 44.8357 30.6293C45.7875 31.5975 47.0514 32.1302 48.3967 32.1302H48.4071C51.1853 32.1239 53.4407 29.8182 53.4344 26.9903C53.4282 24.1657 51.1697 21.8726 48.3956 21.8726H48.3967ZM41.5617 9.2218C41.9291 8.84841 42.4144 8.66277 42.9028 8.66277C43.3913 8.66277 43.9016 8.85579 44.2846 9.24184C44.6551 9.61417 44.8607 10.1078 44.8639 10.6299C44.868 11.1467 44.6729 11.6309 44.3149 11.9937C43.959 12.3555 43.4831 12.5538 42.9738 12.5538C42.9717 12.5538 42.9696 12.5538 42.9675 12.5538C42.4499 12.5527 41.9614 12.346 41.591 11.9737C40.8312 11.209 40.8176 9.9749 41.5596 9.2218H41.5617ZM11.8487 11.9673C11.092 12.7352 9.87096 12.7489 9.12578 11.999C8.38061 11.2491 8.38896 10.0139 9.14561 9.24711C9.90227 8.47924 11.1234 8.46553 11.8685 9.21547C12.6137 9.9654 12.6054 11.2005 11.8487 11.9673ZM11.8737 44.781C11.1317 45.5341 9.90957 45.5246 9.15083 44.761C8.39105 43.9963 8.37748 42.7622 9.11952 42.0091C9.48689 41.6357 9.97219 41.4501 10.4606 41.4501C10.9491 41.4501 11.4594 41.6431 11.8435 42.0292C12.6033 42.7939 12.6168 44.0279 11.8748 44.781H11.8737ZM41.5868 42.0344C41.9708 41.6452 42.4739 41.449 42.9748 41.449C43.4758 41.449 43.9434 41.6326 44.3097 42.0028C44.6687 42.3635 44.8649 42.8476 44.8639 43.3645C44.8618 43.8876 44.6583 44.3813 44.2899 44.7557C43.9214 45.1302 43.433 45.3379 42.9164 45.3422C42.404 45.3443 41.926 45.1491 41.5669 44.7874C40.8218 44.0374 40.8312 42.8023 41.5868 42.0355V42.0344ZM26.7136 3.16323H26.7177C27.2385 3.16323 27.727 3.3647 28.0943 3.7307C28.4586 4.09354 28.66 4.57556 28.661 5.08712C28.6621 5.59868 28.4627 6.08177 28.1006 6.44566C27.7332 6.81377 27.2437 7.01734 26.7219 7.01945H26.7177C25.648 7.01945 24.7765 6.15771 24.7744 5.09556C24.7724 4.03236 25.6428 3.16534 26.7146 3.16323H26.7136ZM5.04298 28.9649H5.03881C4.53368 28.9649 4.05777 28.7634 3.69875 28.3984C3.33451 28.0272 3.13204 27.5325 3.131 27.0051C3.12891 25.9219 3.98262 25.039 5.03463 25.0369H5.03881C6.08873 25.0369 6.94453 25.9155 6.94662 26.9967C6.94871 28.0799 6.09499 28.9627 5.04298 28.9649ZM28.1006 50.2647C27.7332 50.6329 27.2437 50.8364 26.7219 50.8385H26.7177C25.648 50.8385 24.7765 49.9768 24.7744 48.9146C24.7724 47.8514 25.6428 46.9844 26.7146 46.9823H26.7188C27.2396 46.9823 27.728 47.1838 28.0954 47.5498C28.4596 47.9126 28.661 48.3946 28.6621 48.9062C28.6631 49.4178 28.4638 49.8998 28.1016 50.2647H28.1006ZM26.7376 38.5294C20.51 38.5294 15.4441 33.3579 15.4441 27.0009C15.4441 20.6438 20.51 15.4723 26.7376 15.4723C32.9651 15.4723 38.031 20.6438 38.031 27.0009C38.031 33.3579 32.9651 38.5294 26.7376 38.5294ZM48.4008 28.9649H48.3967C47.8915 28.9649 47.4156 28.7634 47.0566 28.3984C46.6924 28.0272 46.4899 27.5325 46.4888 27.0051C46.4878 26.4777 46.6871 25.982 47.0503 25.6086C47.4094 25.2405 47.8863 25.0369 48.3925 25.0359H48.3967C49.4466 25.0359 50.3024 25.9145 50.3045 26.9967C50.3066 28.0799 49.4528 28.9627 48.4008 28.9649Z" fill="#34C565"/>
<path d="M28.4111 25.439C27.3873 25.073 26.2591 24.6342 25.6506 24.1522C25.5974 24.11 25.5212 23.9096 25.5755 23.6174C25.6016 23.4782 25.7206 23.0141 26.1672 22.878C27.0794 22.6006 27.6931 22.9592 27.9143 23.1269C28.6073 23.6501 29.5884 23.5066 30.106 22.8073C30.6237 22.108 30.4817 21.1165 29.7898 20.5934C29.5539 20.4151 29.0018 20.047 28.2139 19.8171V19.6515C28.2139 18.7781 27.5125 18.0693 26.6484 18.0693C25.7842 18.0693 25.0829 18.7781 25.0829 19.6515V19.912C23.7543 20.3898 22.7722 21.568 22.4988 23.0331C22.2337 24.4538 22.7012 25.8377 23.7188 26.6446C24.6811 27.4072 26.042 27.9514 27.3685 28.425C28.1857 28.7172 28.2692 29.311 28.1951 29.7572C28.0886 30.3964 27.5564 31.0883 26.6379 31.0946C25.5609 31.103 25.3052 31.0619 24.5162 30.5398C23.7929 30.0609 22.8223 30.2666 22.3495 30.9976C21.8757 31.7285 22.0792 32.7094 22.8025 33.1883C23.6604 33.7558 24.3377 34.0332 25.0829 34.1608V34.3475C25.0829 35.2208 25.7842 35.9296 26.6484 35.9296C27.5125 35.9296 28.2139 35.2208 28.2139 34.3475V33.991C29.9307 33.3803 31.0265 31.8213 31.2822 30.2824C31.6402 28.1286 30.487 26.1836 28.4111 25.4421V25.439Z" fill="#34C565"/>
</svg>
