<svg width="22" height="21" viewBox="0 0 22 21" fill="none" xmlns="http://www.w3.org/2000/svg">
<path d="M10.9404 20.5C7.34668 20.5 4.06543 18.625 2.26855 15.5C0.47168 12.4141 0.47168 8.625 2.26855 5.5C4.06543 2.41406 7.34668 0.5 10.9404 0.5C14.4951 0.5 17.7764 2.41406 19.5732 5.5C21.3701 8.625 21.3701 12.4141 19.5732 15.5C17.7764 18.625 14.4951 20.5 10.9404 20.5ZM10.0029 13.9375C10.0029 14.4844 10.3936 14.875 10.9404 14.875C11.4482 14.875 11.8779 14.4844 11.8779 13.9375V11.4375H14.3779C14.8857 11.4375 15.3154 11.0469 15.3154 10.5C15.3154 9.99219 14.8857 9.5625 14.3779 9.5625H11.8779V7.0625C11.8779 6.55469 11.4482 6.125 10.9404 6.125C10.3936 6.125 10.0029 6.55469 10.0029 7.0625V9.5625H7.50293C6.95605 9.5625 6.56543 9.99219 6.56543 10.5C6.56543 11.0469 6.95605 11.4375 7.50293 11.4375H10.0029V13.9375Z" fill="#34C565"/>
</svg>
