<svg width="22" height="21" viewBox="0 0 22 21" fill="none" xmlns="http://www.w3.org/2000/svg">
<path d="M10.9404 20.5C7.34668 20.5 4.06543 18.625 2.26855 15.5C0.47168 12.4141 0.47168 8.625 2.26855 5.5C4.06543 2.41406 7.34668 0.5 10.9404 0.5C14.4951 0.5 17.7764 2.41406 19.5732 5.5C21.3701 8.625 21.3701 12.4141 19.5732 15.5C17.7764 18.625 14.4951 20.5 10.9404 20.5ZM8.12793 9.5625C7.58105 9.5625 7.19043 9.99219 7.19043 10.5C7.19043 11.0469 7.58105 11.4375 8.12793 11.4375H13.7529C14.2607 11.4375 14.6904 11.0469 14.6904 10.5C14.6904 9.99219 14.2607 9.5625 13.7529 9.5625H8.12793Z" fill="#34C565"/>
</svg>
