<svg width="214" height="41" viewBox="0 0 214 41" fill="none" xmlns="http://www.w3.org/2000/svg">
<path d="M65.0192 22.4125H58.3071V30.3878C58.3071 30.6877 58.1588 30.9135 57.8653 31.0712C57.5686 31.2351 57.2404 31.3124 56.8775 31.3124C56.5146 31.3124 56.1928 31.2351 55.8961 31.0712C55.5995 30.9135 55.4512 30.6877 55.4512 30.3878V12.9004C55.4512 12.5849 55.5995 12.353 55.8961 12.2139C56.1928 12.0747 56.521 12.0005 56.8775 12.0005C57.2341 12.0005 57.5686 12.0716 57.8653 12.2139C58.1588 12.353 58.3071 12.5849 58.3071 12.9004V20.1891H65.0192V12.9004C65.0192 12.5849 65.1707 12.353 65.4673 12.2139C65.7608 12.0747 66.0858 12.0005 66.4487 12.0005C66.8117 12.0005 67.1367 12.0716 67.4302 12.2139C67.7268 12.353 67.8751 12.5849 67.8751 12.9004V30.3878C67.8751 30.6877 67.7268 30.9135 67.4302 31.0712C67.1367 31.2351 66.8085 31.3124 66.4487 31.3124C66.089 31.3124 65.7608 31.2351 65.4673 31.0712C65.1707 30.9135 65.0192 30.6877 65.0192 30.3878V22.4125Z" fill="white"/>
<path d="M75.9451 18.6336C76.6646 18.6336 77.3462 18.7542 77.9931 18.9923C78.6432 19.2274 79.2081 19.5613 79.7035 19.9943C80.199 20.4272 80.5903 20.9436 80.8806 21.5405C81.1646 22.1373 81.3098 22.7991 81.3098 23.5196C81.3098 24.0638 81.2403 24.4906 81.0952 24.7998C80.95 25.1091 80.767 25.3317 80.5398 25.474C80.3157 25.6131 80.057 25.7059 79.7603 25.7399C79.4637 25.7739 79.1639 25.7925 78.861 25.7925H73.1744V26.3986C73.1744 27.2985 73.4963 28.0004 74.1464 28.5138C74.7901 29.024 75.6358 29.2807 76.6772 29.2807C77.1632 29.2807 77.5703 29.225 77.9016 29.1199C78.233 29.0147 78.5201 28.9003 78.7663 28.7797C79.0093 28.656 79.2239 28.5416 79.4132 28.4334C79.6025 28.3282 79.7856 28.2757 79.9686 28.2757C80.3094 28.2757 80.5745 28.421 80.7765 28.7117C80.9721 29.0024 81.0731 29.2714 81.0731 29.5188C81.0731 29.7105 80.969 29.927 80.7638 30.162C80.5556 30.4001 80.2558 30.6228 79.8613 30.8238C79.4637 31.0279 78.9935 31.1949 78.4444 31.3247C77.8953 31.4577 77.28 31.5227 76.5983 31.5227C75.68 31.5227 74.8406 31.3928 74.0769 31.1392C73.3133 30.8856 72.6537 30.53 72.0952 30.0692C71.5398 29.6116 71.1106 29.0611 70.8045 28.4179C70.4984 27.7747 70.3438 27.0604 70.3438 26.2625V23.7546C70.3438 23.0681 70.4921 22.4094 70.7887 21.7848C71.0853 21.1601 71.4861 20.6127 71.991 20.1489C72.4928 19.6789 73.086 19.3139 73.7708 19.0387C74.4556 18.7635 75.1814 18.6274 75.9546 18.6274M77.6429 24.0762C78.0373 24.0762 78.3024 24.0236 78.4381 23.9185C78.5738 23.8134 78.6432 23.6 78.6432 23.2846C78.6432 22.5795 78.3813 21.9827 77.8606 21.491C77.3368 20.9962 76.6898 20.7488 75.9167 20.7488C75.538 20.7488 75.1877 20.8107 74.8564 20.9344C74.525 21.0581 74.2316 21.2281 73.9791 21.4539C73.7266 21.6703 73.531 21.9332 73.389 22.2301C73.2438 22.53 73.1712 22.8609 73.1712 23.232V24.0762H77.646H77.6429Z" fill="white"/>
<path d="M87.6683 18.6338C88.6529 18.6338 89.4954 18.7791 90.1865 19.0729C90.8808 19.3636 91.4425 19.747 91.8748 20.2202C92.304 20.6964 92.6196 21.2438 92.8152 21.8591C93.0172 22.4776 93.1118 23.1146 93.1118 23.764V30.391C93.1118 30.6384 92.9825 30.8549 92.7237 31.0373C92.4618 31.2229 92.1336 31.3125 91.7423 31.3125C91.3825 31.3125 91.0764 31.2229 90.824 31.0373C90.5715 30.8518 90.4453 30.6353 90.4453 30.391V29.4664C89.9782 30.0137 89.4134 30.49 88.7475 30.9043C88.0848 31.3187 87.2959 31.5259 86.3776 31.5259C85.8948 31.5259 85.4309 31.4579 84.9891 31.3125C84.5505 31.1765 84.1686 30.9569 83.8467 30.6693C83.5217 30.3786 83.2692 30.0168 83.0799 29.5839C82.8906 29.1541 82.7959 28.6376 82.7959 28.0408C82.7959 27.2986 82.9474 26.6863 83.2535 26.1916C83.5564 25.6999 83.9887 25.3102 84.5441 25.0257C85.1027 24.7474 85.7654 24.5464 86.5385 24.432C87.3085 24.3176 88.1637 24.2619 89.0978 24.2619H90.2843V23.7857C90.2843 23.4517 90.2402 23.1146 90.1486 22.7683C90.0603 22.425 89.9088 22.1189 89.6911 21.8437C89.4733 21.5715 89.1988 21.3551 88.858 21.185C88.5172 21.018 88.1038 20.9314 87.6146 20.9314C87.1255 20.9314 86.7247 20.9685 86.4028 21.052C86.081 21.1324 85.8096 21.2252 85.595 21.3303C85.3804 21.4355 85.1942 21.5283 85.0427 21.6087C84.8913 21.686 84.7524 21.7262 84.6262 21.7262C84.2822 21.7262 84.0298 21.5746 83.8562 21.2654C83.689 20.9593 83.6006 20.6438 83.6006 20.3253C83.6006 20.0965 83.7237 19.8769 83.9761 19.6636C84.2286 19.4533 84.5536 19.2708 84.9481 19.1255C85.3425 18.977 85.7749 18.8564 86.2514 18.7699C86.731 18.6771 87.2012 18.6338 87.6683 18.6338ZM90.2843 25.7926H89.6122C89.0883 25.7926 88.5929 25.8174 88.1164 25.8576C87.6399 25.9009 87.2233 25.9936 86.8636 26.1235C86.5038 26.2565 86.2103 26.442 85.9863 26.6894C85.7654 26.9368 85.6518 27.2708 85.6518 27.6945C85.6518 28.2913 85.8159 28.7273 86.1472 28.9994C86.4786 29.2716 86.8983 29.4076 87.4 29.4076C87.7409 29.4076 88.0817 29.3303 88.4256 29.1726C88.7633 29.0149 89.0757 28.8139 89.3566 28.5665C89.6343 28.316 89.8583 28.0377 90.0319 27.7192C90.2023 27.4007 90.2875 27.0853 90.2875 26.7667V25.7896L90.2843 25.7926Z" fill="white"/>
<path d="M97.1572 11.345C97.5517 11.345 97.8862 11.4316 98.1671 11.5985C98.4448 11.7655 98.5836 11.982 98.5836 12.2449V30.3909C98.5836 30.6198 98.4448 30.83 98.1671 31.0249C97.8862 31.2197 97.5485 31.3155 97.1572 31.3155C96.7659 31.3155 96.4062 31.2197 96.1474 31.0249C95.8855 30.83 95.7561 30.6198 95.7561 30.3909V12.2449C95.7561 11.982 95.8855 11.7655 96.1474 11.5985C96.4062 11.4316 96.747 11.345 97.1572 11.345Z" fill="white"/>
<path d="M104.352 27.1934C104.352 27.8273 104.491 28.2757 104.769 28.5416C105.046 28.8045 105.539 28.9375 106.236 28.9375H107.183C107.596 28.9375 107.899 29.0612 108.098 29.3086C108.294 29.5559 108.395 29.8281 108.395 30.1249C108.395 30.4218 108.297 30.7001 108.098 30.9444C107.899 31.1918 107.596 31.3155 107.183 31.3155H106.236C104.693 31.3155 103.522 30.9908 102.721 30.3414C101.922 29.692 101.521 28.6406 101.521 27.1965V13.9642C101.521 13.6982 101.67 13.4849 101.97 13.3179C102.263 13.154 102.582 13.0674 102.919 13.0674C103.282 13.0674 103.611 13.154 103.907 13.3179C104.201 13.4879 104.352 13.6982 104.352 13.9642V18.7976H107.64C107.893 18.7976 108.088 18.9027 108.218 19.113C108.354 19.3264 108.42 19.5645 108.42 19.8273C108.42 20.0902 108.354 20.3283 108.218 20.5417C108.085 20.7519 107.893 20.8571 107.64 20.8571H104.352V27.1965V27.1934Z" fill="white"/>
<path d="M113.273 30.3878C113.273 30.6167 113.131 30.827 112.844 31.0218C112.553 31.2166 112.222 31.3125 111.85 31.3125C111.433 31.3125 111.095 31.2166 110.837 31.0218C110.575 30.827 110.445 30.6167 110.445 30.3878V12.2449C110.445 11.9789 110.575 11.7624 110.837 11.5985C111.095 11.4316 111.433 11.345 111.85 11.345C112.225 11.345 112.556 11.4316 112.844 11.5985C113.131 11.7655 113.273 11.982 113.273 12.2449V20.6407C113.525 20.1304 113.948 19.6697 114.541 19.2553C115.132 18.8409 115.86 18.6337 116.722 18.6337C117.35 18.6337 117.95 18.7698 118.518 19.045C119.086 19.3202 119.584 19.6913 120.013 20.1675C120.443 20.6407 120.787 21.1973 121.039 21.8312C121.288 22.4652 121.418 23.1331 121.418 23.8382V30.3878C121.418 30.6878 121.269 30.9135 120.973 31.0713C120.676 31.2321 120.351 31.3094 119.988 31.3094C119.663 31.3094 119.348 31.2321 119.041 31.0713C118.738 30.9135 118.584 30.6878 118.584 30.3878V23.8382C118.584 23.5042 118.514 23.1702 118.369 22.8362C118.224 22.4992 118.028 22.2054 117.773 21.9518C117.52 21.6952 117.233 21.488 116.914 21.3303C116.589 21.1725 116.239 21.0921 115.864 21.0921C115.542 21.0921 115.223 21.1509 114.907 21.2746C114.592 21.3983 114.314 21.5807 114.071 21.8158C113.825 22.057 113.636 22.3446 113.491 22.6909C113.345 23.0311 113.276 23.4176 113.276 23.8413V30.3909L113.273 30.3878Z" fill="white"/>
<path d="M139.011 17.3133C138.995 17.0875 138.951 16.8092 138.875 16.4814C138.806 16.1567 138.657 15.8475 138.443 15.5568C138.228 15.2661 137.919 15.0156 137.512 14.8054C137.108 14.592 136.556 14.4838 135.855 14.4838C134.817 14.4838 134.012 14.7621 133.457 15.3187C132.901 15.8753 132.621 16.735 132.621 17.8946V25.5792C132.621 26.7419 132.901 27.5985 133.457 28.1552C134.012 28.7087 134.833 28.987 135.912 28.987C136.594 28.987 137.136 28.888 137.54 28.684C137.944 28.4799 138.25 28.2325 138.459 27.9325C138.667 27.6325 138.799 27.3109 138.866 26.9677C138.926 26.6244 138.976 26.3028 139.011 26.006C139.049 25.6534 139.194 25.4091 139.443 25.2762C139.696 25.1463 140.017 25.0813 140.415 25.0813C140.914 25.0813 141.286 25.1772 141.516 25.372C141.747 25.5668 141.867 25.9534 141.867 26.5347C141.867 27.2553 141.715 27.9201 141.422 28.5293C141.122 29.1354 140.705 29.6611 140.169 30.1003C139.629 30.5394 138.982 30.8795 138.228 31.1177C137.471 31.3558 136.635 31.4733 135.719 31.4733C134.915 31.4733 134.145 31.3681 133.416 31.1579C132.69 30.9445 132.056 30.6074 131.516 30.1405C130.976 29.6735 130.547 29.0674 130.235 28.319C129.922 27.5707 129.765 26.6584 129.765 25.5854V17.9008C129.765 16.8278 129.922 15.9155 130.235 15.1672C130.547 14.4188 130.98 13.8127 131.529 13.3458C132.075 12.8788 132.715 12.5417 133.444 12.3284C134.17 12.1181 134.937 12.0129 135.748 12.0129C136.663 12.0129 137.499 12.1305 138.253 12.3686C139.008 12.6067 139.655 12.9376 140.191 13.3612C140.731 13.7818 141.147 14.2858 141.431 14.8672C141.722 15.4455 141.864 16.0918 141.864 16.7938C141.864 17.3937 141.744 17.7864 141.513 17.9689C141.28 18.1544 140.923 18.2441 140.434 18.2441C140.005 18.2441 139.664 18.1699 139.412 18.0245C139.162 17.873 139.023 17.638 139.005 17.3226" fill="white"/>
<path d="M148.374 18.6338C149.361 18.6338 150.201 18.7791 150.892 19.0729C151.583 19.3667 152.148 19.747 152.577 20.2202C153.006 20.6964 153.322 21.2438 153.521 21.8591C153.719 22.4776 153.817 23.1146 153.817 23.764V30.391C153.817 30.6384 153.685 30.8549 153.426 31.0373C153.167 31.2229 152.836 31.3125 152.444 31.3125C152.088 31.3125 151.779 31.2229 151.526 31.0373C151.274 30.8518 151.147 30.6353 151.147 30.391V29.4664C150.68 30.0137 150.116 30.49 149.453 30.9043C148.784 31.3187 147.998 31.5259 147.08 31.5259C146.597 31.5259 146.133 31.4579 145.694 31.3125C145.253 31.1765 144.874 30.9569 144.549 30.6693C144.227 30.3786 143.971 30.0168 143.782 29.5839C143.593 29.1541 143.498 28.6376 143.498 28.0408C143.498 27.2986 143.653 26.6863 143.956 26.1916C144.262 25.6999 144.691 25.3102 145.253 25.0257C145.808 24.7474 146.474 24.5464 147.247 24.432C148.017 24.3176 148.869 24.2619 149.803 24.2619H150.99V23.7857C150.99 23.4517 150.942 23.1146 150.851 22.7683C150.762 22.425 150.608 22.1189 150.393 21.8437C150.179 21.5715 149.901 21.3551 149.56 21.185C149.219 21.018 148.803 20.9314 148.317 20.9314C147.831 20.9314 147.427 20.9685 147.105 21.052C146.783 21.1324 146.515 21.2252 146.297 21.3303C146.083 21.4355 145.9 21.5283 145.745 21.6087C145.593 21.686 145.451 21.7262 145.328 21.7262C144.984 21.7262 144.729 21.5746 144.558 21.2654C144.388 20.9593 144.303 20.6438 144.303 20.3253C144.303 20.0965 144.429 19.8769 144.681 19.6636C144.934 19.4533 145.259 19.2708 145.653 19.1255C146.048 18.977 146.483 18.8564 146.96 18.7699C147.436 18.6771 147.91 18.6338 148.377 18.6338M150.986 25.7926H150.311C149.79 25.7926 149.292 25.8174 148.815 25.8576C148.339 25.9009 147.925 25.9936 147.563 26.1235C147.203 26.2565 146.909 26.442 146.685 26.6894C146.461 26.9368 146.351 27.2708 146.351 27.6945C146.351 28.2913 146.515 28.7273 146.849 28.9994C147.181 29.2716 147.6 29.4076 148.102 29.4076C148.443 29.4076 148.784 29.3303 149.125 29.1726C149.465 29.0149 149.778 28.8139 150.056 28.5665C150.333 28.316 150.557 28.0377 150.728 27.7192C150.898 27.4007 150.986 27.0853 150.986 26.7667V25.7896V25.7926Z" fill="white"/>
<path d="M162.429 21.0921C162.016 21.0921 161.615 21.1787 161.23 21.355C160.842 21.5313 160.495 21.7879 160.192 22.1188C159.886 22.4528 159.637 22.8641 159.447 23.3496C159.261 23.832 159.166 24.3732 159.166 24.9731V30.3878C159.166 30.6136 159.028 30.827 158.75 31.0218C158.472 31.2166 158.125 31.3125 157.712 31.3125C157.298 31.3125 156.967 31.2166 156.715 31.0218C156.462 30.827 156.336 30.6167 156.336 30.3878V19.6882C156.336 19.4254 156.462 19.2089 156.715 19.0419C156.967 18.8718 157.298 18.7914 157.712 18.7914C158.068 18.7914 158.374 18.8749 158.63 19.0419C158.879 19.2089 159.006 19.4254 159.006 19.6882V20.8509C159.151 20.5695 159.334 20.2974 159.561 20.0315C159.782 19.7686 160.044 19.5305 160.34 19.3171C160.637 19.1037 160.959 18.9368 161.312 18.8162C161.659 18.6925 162.032 18.6306 162.433 18.6306H163.291C163.581 18.6306 163.834 18.7512 164.045 18.9893C164.263 19.2274 164.37 19.5119 164.37 19.8459C164.37 20.1985 164.263 20.4922 164.045 20.7303C163.834 20.9654 163.581 21.0891 163.291 21.0891H162.433L162.429 21.0921Z" fill="white"/>
<path d="M170.836 18.6339C171.556 18.6339 172.237 18.7545 172.887 18.9926C173.537 19.2276 174.102 19.5616 174.595 19.9945C175.09 20.4275 175.481 20.9439 175.769 21.5407C176.056 22.1375 176.201 22.7993 176.201 23.5198C176.201 24.0641 176.128 24.4908 175.983 24.8001C175.838 25.1093 175.655 25.332 175.431 25.4742C175.207 25.6134 174.948 25.7061 174.648 25.7402C174.355 25.7742 174.052 25.7927 173.746 25.7927H168.059V26.3988C168.059 27.2987 168.378 28.0007 169.031 28.514C169.678 29.0243 170.521 29.2809 171.562 29.2809C172.048 29.2809 172.455 29.2253 172.786 29.1201C173.121 29.015 173.405 28.9006 173.648 28.78C173.894 28.6563 174.105 28.5418 174.295 28.4336C174.484 28.3285 174.667 28.2759 174.847 28.2759C175.188 28.2759 175.459 28.4212 175.658 28.7119C175.857 29.0026 175.955 29.2717 175.955 29.519C175.955 29.7108 175.851 29.9272 175.645 30.1623C175.437 30.4004 175.137 30.623 174.743 30.824C174.345 31.0281 173.875 31.1951 173.326 31.325C172.777 31.458 172.168 31.5229 171.483 31.5229C170.565 31.5229 169.725 31.393 168.962 31.1394C168.198 30.8859 167.535 30.5302 166.983 30.0695C166.425 29.6118 165.992 29.0614 165.689 28.4182C165.383 27.7749 165.229 27.0606 165.229 26.2628V23.7548C165.229 23.0683 165.377 22.4097 165.677 21.785C165.97 21.1603 166.371 20.613 166.876 20.1491C167.374 19.6791 167.971 19.3142 168.656 19.039C169.334 18.7638 170.063 18.6277 170.836 18.6277M172.534 24.0765C172.928 24.0765 173.193 24.0239 173.326 23.9187C173.462 23.8136 173.534 23.6002 173.534 23.2848C173.534 22.5797 173.272 21.9829 172.749 21.4912C172.228 20.9964 171.578 20.7491 170.808 20.7491C170.429 20.7491 170.079 20.8109 169.747 20.9346C169.413 21.0583 169.123 21.2284 168.87 21.4541C168.615 21.6706 168.419 21.9334 168.277 22.2303C168.135 22.5303 168.062 22.8612 168.062 23.2322V24.0765H172.537H172.534Z" fill="white"/>
<path d="M185.443 31.3124C185.137 31.3124 184.85 31.2351 184.579 31.0743C184.31 30.9166 184.175 30.6908 184.175 30.3909V12.9066C184.175 12.5911 184.323 12.3592 184.617 12.22C184.913 12.0809 185.241 12.0098 185.601 12.0098C185.961 12.0098 186.292 12.0809 186.589 12.22C186.882 12.3592 187.034 12.5911 187.034 12.9066V28.8323H194.039C194.33 28.8323 194.541 28.9591 194.69 29.2127C194.828 29.4662 194.904 29.7538 194.904 30.0693C194.904 30.3847 194.832 30.6537 194.69 30.9166C194.544 31.1794 194.33 31.3124 194.039 31.3124H185.443Z" fill="white"/>
<path d="M197.593 31.3125C197.391 31.3125 197.189 31.2877 196.987 31.2352C196.776 31.1795 196.587 31.1022 196.407 30.994C196.227 30.8919 196.085 30.7651 195.978 30.626C195.867 30.4868 195.813 30.3291 195.813 30.1497C195.813 30.0446 195.823 29.9642 195.839 29.9116L201.203 12.7984C201.311 12.483 201.535 12.2449 201.879 12.0841C202.22 11.9263 202.592 11.8459 203.012 11.8459C203.431 11.8459 203.807 11.9263 204.154 12.0841C204.504 12.2449 204.731 12.483 204.842 12.7984L210.175 29.9116C210.213 30.0168 210.235 30.0972 210.235 30.1497C210.235 30.3074 210.172 30.459 210.058 30.5981C209.941 30.7404 209.796 30.8641 209.629 30.9692C209.452 31.0713 209.263 31.1578 209.048 31.2197C208.831 31.2815 208.626 31.3094 208.43 31.3094C208.193 31.3094 207.991 31.2661 207.821 31.1764C207.65 31.0898 207.531 30.9383 207.455 30.728L206.353 26.977H199.695L198.59 30.728C198.518 30.9383 198.398 31.0898 198.228 31.1764C198.057 31.2661 197.846 31.3094 197.596 31.3094M205.703 24.735L203.012 15.6774L200.313 24.735H205.703Z" fill="white"/>
<path d="M210.506 11.7874C210.604 11.7874 210.68 11.8647 210.68 11.9543C210.68 12.0502 210.604 12.1275 210.506 12.1275H209.847V15.022C209.847 15.1148 209.771 15.189 209.673 15.189C209.581 15.189 209.503 15.1148 209.503 15.022V12.1275H208.846C208.752 12.1275 208.676 12.0502 208.676 11.9543C208.676 11.8678 208.752 11.7874 208.846 11.7874H210.506Z" fill="white"/>
<path d="M213.397 15.0186V12.6468L212.605 14.1992C212.577 14.261 212.52 14.295 212.451 14.295C212.391 14.295 212.331 14.2641 212.296 14.1992L211.507 12.6468V15.0186C211.507 15.1114 211.428 15.1887 211.334 15.1887C211.239 15.1887 211.163 15.1145 211.163 15.0186V11.9294C211.166 11.8335 211.239 11.7593 211.334 11.7593C211.393 11.7593 211.46 11.7964 211.488 11.852L212.451 13.7508L213.419 11.852C213.451 11.7995 213.511 11.7593 213.574 11.7593C213.675 11.7593 213.744 11.8459 213.744 11.9294V15.0186C213.744 15.1114 213.666 15.1887 213.574 15.1887C213.483 15.1887 213.4 15.1145 213.4 15.0186" fill="white"/>
<path d="M34.649 15.1178L43.5323 13.0954C43.5828 13.083 43.627 13.049 43.6491 13.0026C43.6712 12.9531 43.6712 12.8975 43.6427 12.8511C43.4124 12.412 43.141 11.9481 42.7876 11.3946C42.7465 11.3296 42.6645 11.2987 42.5919 11.3234L32.0771 14.456C32.8692 14.3787 33.7623 14.5148 34.6459 15.1147" fill="white"/>
<path d="M39.4558 19.249L45.6662 19.4531H45.6725C45.7229 19.4531 45.7703 19.4314 45.8018 19.3943C45.8366 19.3572 45.8492 19.3046 45.8429 19.2552C45.7419 18.6893 45.6157 18.1203 45.461 17.5234C45.4421 17.4461 45.36 17.3781 45.2875 17.3966L37.6191 17.6471C38.1966 18.1512 38.812 18.6862 39.4589 19.2459" fill="white"/>
<path d="M1.46687 19.178H1.47318L10.7982 18.8687L12.1962 17.9348C12.1962 17.9348 15.1215 16.1784 17.7471 17.9348C18.7316 18.5935 20.7103 19.917 22.7962 21.3117L27.5676 17.1586C27.5486 17.0195 27.5455 16.8741 27.5139 16.7381L28.2429 16.5711L29.5399 15.4455C29.5399 15.4455 29.8239 15.2228 30.2909 14.9878L27.2804 15.8846C27.1479 15.4857 26.9838 15.1022 26.7913 14.7342L39.8053 7.93099C39.8527 7.90625 39.8842 7.85987 39.8969 7.8073C39.9063 7.75473 39.8874 7.70216 39.8495 7.66505C39.5276 7.34035 39.171 7.00328 38.6851 6.57344C38.6283 6.52087 38.5431 6.51468 38.4799 6.55488L26.34 13.9673C26.1065 13.6179 25.8414 13.2901 25.5606 12.9808L35.1065 4.2356C35.1475 4.19849 35.1665 4.14592 35.1602 4.09335C35.157 4.04078 35.1223 3.99439 35.0781 3.96656C34.6237 3.69753 34.1977 3.46869 33.7748 3.25841C33.7054 3.2213 33.6202 3.23985 33.5697 3.29552L24.9231 12.3562C24.6075 12.0779 24.273 11.8212 23.9164 11.5955L30.0195 2.006C30.0479 1.95961 30.0543 1.90395 30.0322 1.85447C30.0132 1.80499 29.9722 1.76788 29.9217 1.75242C29.5146 1.63491 29.0791 1.52358 28.5837 1.41226C28.508 1.39989 28.4322 1.43081 28.3944 1.49885L23.137 11.1563C22.7615 10.9677 22.3702 10.8069 21.9631 10.677L24.9294 1.12158C24.9452 1.0721 24.9389 1.01953 24.9073 0.976234C24.8789 0.932941 24.8284 0.905109 24.7779 0.902017C24.6517 0.895832 24.5223 0.886555 24.393 0.88037C24.1152 0.861816 23.8344 0.843262 23.5504 0.843262H23.5094C23.4273 0.843262 23.3579 0.898925 23.3421 0.976234L21.0953 10.4451C20.685 10.3616 20.2622 10.3152 19.833 10.2936L20.1391 1.32258C20.1391 1.2731 20.1201 1.22362 20.0823 1.18961C20.0444 1.15868 19.9939 1.14322 19.9403 1.1525L19.6973 1.18961C19.3849 1.23599 19.0725 1.28547 18.7664 1.35041C18.6843 1.36897 18.6275 1.44009 18.6307 1.52049L18.9305 10.2936C18.5013 10.3152 18.0784 10.3616 17.6682 10.4451L15.7653 2.42037C15.7527 2.37399 15.7211 2.33379 15.6769 2.30905C15.6328 2.28431 15.5823 2.2874 15.5349 2.29977L15.374 2.36162C15.0742 2.47294 14.7744 2.58427 14.4809 2.71106C14.3989 2.74507 14.361 2.83166 14.3831 2.91206L16.7941 10.6739C16.387 10.8038 15.9957 10.9677 15.6201 11.1532L11.868 4.26034C11.8459 4.22014 11.8049 4.18921 11.7607 4.17684C11.7134 4.16448 11.6661 4.17375 11.625 4.1954L11.4357 4.30982C11.1864 4.46134 10.9371 4.60978 10.6941 4.77367C10.6184 4.82315 10.5963 4.9252 10.6468 4.99942L14.8344 11.5893C14.4778 11.8181 14.1433 12.0748 13.8277 12.3531L8.46934 6.73733C8.40623 6.6693 8.29578 6.66312 8.22951 6.72806L8.02755 6.90432C7.82558 7.08368 7.62046 7.26613 7.42797 7.45786C7.39641 7.49187 7.37748 7.53517 7.37748 7.57846C7.37748 7.62485 7.39957 7.66814 7.43112 7.69906L13.1903 12.9747C12.9062 13.2839 12.6443 13.6117 12.414 13.9611L5.59767 9.80188C5.52193 9.75549 5.42095 9.77405 5.3673 9.84517L5.18112 10.0895C5.01702 10.2998 4.85924 10.5069 4.70776 10.7265C4.67936 10.7667 4.6699 10.8162 4.68567 10.8626C4.69514 10.909 4.7267 10.9461 4.77088 10.9708L11.9658 14.7311C11.7734 15.0991 11.6093 15.4826 11.4736 15.8815L3.30979 13.4478C3.22775 13.4231 3.14254 13.4602 3.10467 13.5344L3.01 13.7261C2.87115 14.0044 2.73546 14.2827 2.61239 14.5703C2.59345 14.6167 2.59661 14.6662 2.6187 14.7126C2.64079 14.759 2.68181 14.7899 2.7323 14.7992L11.2337 16.735C11.1485 17.137 11.1012 17.5514 11.0791 17.9719L1.73195 17.6658C1.64359 17.6627 1.57732 17.7153 1.55839 17.7957C1.46372 18.1637 1.36904 18.5626 1.29015 18.9739C1.28069 19.0234 1.29331 19.0759 1.32802 19.113C1.35958 19.1501 1.41007 19.1718 1.4574 19.1718" fill="white"/>
<path d="M0.946523 23.8691C0.946523 23.9216 0.974925 23.968 1.0191 23.999C1.04751 24.0206 1.08222 24.0299 1.11693 24.0299C1.13271 24.0299 1.14849 24.0299 1.16742 24.0206L4.64499 22.9847L7.78806 20.8818L1.05697 22.4187C0.981236 22.4373 0.927589 22.4991 0.924434 22.5796C0.924434 22.6445 0.918122 22.7094 0.914967 22.7713C0.908655 22.8579 0.902344 22.9475 0.902344 23.0372C0.902344 23.2073 0.914967 23.3774 0.924434 23.5444C0.933901 23.6526 0.940212 23.7608 0.943368 23.8691" fill="white"/>
<path d="M35.0879 17.5482C32.4623 15.2661 29.537 17.5482 29.537 17.5482L22.7933 23.4145C20.7106 22.0198 18.7319 20.6963 17.7474 20.0345C15.1218 18.278 12.1965 20.0345 12.1965 20.0345L1.48926 27.1995C1.60917 27.8057 1.7638 28.4025 1.93105 28.99C2.50539 28.6035 3.66037 28.4087 4.60392 28.7117C6.09656 29.191 10.8112 30.3723 14.1783 30.7991C14.2067 30.8022 14.2414 30.8114 14.273 30.8114L14.8662 30.5641C15.7593 30.2208 17.5927 29.6611 19.8112 29.8064C25.1695 30.1682 25.1064 29.7044 27.5395 28.82C27.6815 28.7674 27.8456 28.7179 28.0223 28.6622C28.1738 28.6159 28.341 28.5695 28.5177 28.5262C28.5398 28.52 28.5588 28.5138 28.584 28.5076C28.9848 28.4056 29.4392 28.2973 29.9315 28.1984C33.2986 27.515 38.5781 27.0604 41.7527 28.4643C42.9676 29.0024 43.9932 29.5374 44.8516 30.026C45.2145 28.9715 45.489 27.8799 45.6815 26.7635C42.7941 24.2494 37.0318 19.2367 35.0942 17.5513" fill="white"/>
<path d="M19.8113 31.4702C25.1728 31.8567 25.1065 31.3496 27.5396 30.3105C29.9726 29.2777 37.6346 27.75 41.7465 29.89C42.7247 30.4002 43.5831 30.9104 44.331 31.3898C42.974 34.6182 40.8566 37.4539 38.1963 39.7021C37.0413 39.0032 34.4505 39.3526 34.4505 39.3526C30.3355 39.7794 26.596 40.7566 24.8509 40.8741C23.2257 40.9885 11.0605 37.423 3.59103 32.7288C3.59103 32.7288 2.01319 31.801 3.03247 30.2116C3.3796 29.6766 4.42729 30.0044 4.79019 30.1652C6.2639 30.8177 10.8996 32.1598 14.2699 32.6514C14.2225 33.0565 14.3267 33.4895 14.5823 33.9317C15.57 35.6201 18.3597 35.9758 20.5213 35.9788C20.9063 35.9788 21.3008 35.9665 21.6984 35.9448C22.3358 35.9139 24.0178 35.8304 25.8797 35.8304C30.9319 35.8304 32.7906 36.3778 32.8064 36.387L33.7184 36.6592L32.9705 36.084C31.4305 34.9058 26.9558 34.847 26.0722 34.847H25.9617C24.0999 34.847 22.4273 34.9274 21.793 34.9615C21.4144 34.9831 21.042 34.9924 20.6728 34.9955C18.7446 34.9955 16.2801 34.7079 15.4911 33.3349C15.204 32.8339 15.1913 32.4195 15.4564 32.0701C15.7878 31.7949 16.198 31.6681 16.2012 31.6681C16.2012 31.6681 17.839 31.331 19.8144 31.4732" fill="white"/>
</svg>
