<svg width="82" height="73" viewBox="0 0 82 73" fill="none" xmlns="http://www.w3.org/2000/svg">
<path fill-rule="evenodd" clip-rule="evenodd" d="M47.7213 51.9071L32.2145 27.2093V25.1857H58.5718C59.6151 25.1857 60.5815 24.654 61.105 23.7918C61.6285 22.9295 61.6321 21.8644 61.1141 20.9986L56.088 12.5929L61.1141 4.18713C61.6321 3.32137 61.6285 2.25622 61.105 1.39396C60.5815 0.531699 59.6169 0 58.5718 0H29.2859C27.6678 0 26.3573 1.25229 26.3573 2.79842V27.2093L0.41731 68.521C-0.126309 69.385 -0.139121 70.4624 0.380703 71.3404C0.900527 72.2184 1.87428 72.7606 2.92858 72.7606H79.0719C80.1646 72.7606 81.1658 72.1799 81.6692 71.2547C82.1725 70.3294 82.0975 69.2118 81.4715 68.3583L60.9714 40.3741C60.4241 39.6256 59.5272 39.1813 58.5718 39.1813C57.6163 39.1813 56.7213 39.6273 56.1722 40.3741L47.7213 51.9089V51.9071ZM32.2145 5.59683V19.5889H53.5254L50.1722 13.9816C49.6579 13.1211 49.6579 12.0647 50.1722 11.2042L53.5254 5.59683H32.2145ZM51.0215 57.1611L57.3015 67.162H73.4472L58.5718 46.856L51.0215 57.1611ZM29.2859 33.4236L50.4706 67.162H8.10119L29.2859 33.4236Z" fill="#3ED973"/>
</svg>
