<svg width="20" height="20" viewBox="0 0 20 20" fill="none" xmlns="http://www.w3.org/2000/svg">
<path d="M14.5007 2.48868C11.1818 -0.82956 5.80273 -0.82956 2.48772 2.48868C-0.827286 5.80692 -0.831195 11.1849 2.48772 14.5031C5.39227 17.4071 9.87613 17.7667 13.1755 15.5897L17.1043 19.5176C17.7805 20.1742 18.8595 20.1586 19.5162 19.4824C20.1613 18.8219 20.1613 17.7667 19.5162 17.1061L15.5836 13.1704C17.7649 9.87167 17.4053 5.38872 14.5007 2.48868ZM12.9355 12.9343C10.4836 15.3856 6.49662 15.3856 4.04476 12.9343C1.59291 10.4829 1.59291 6.49675 4.04476 4.0454C6.49662 1.59404 10.4836 1.59404 12.9355 4.0454C15.3873 6.49675 15.3873 10.4876 12.9355 12.9343Z" fill="#039CD5"/>
</svg>
