<svg width="72" height="66" viewBox="0 0 72 66" fill="none" xmlns="http://www.w3.org/2000/svg">
<path d="M64.1733 27.539C64.1761 27.5371 64.1787 27.535 64.1811 27.5326L71.3782 20.3689C72.2048 19.5457 72.2062 18.2027 71.381 17.3781C57.3699 3.38207 60.2737 6.28579 56.4859 2.48159C55.6663 1.65838 54.3375 1.65838 53.5192 2.48159L48.1299 7.89288C47.5904 8.43479 46.5125 8.67117 45.1404 8.8248C40.6773 9.32455 36.0584 7.85397 31.5692 7.72741C30.7941 7.70556 30.0664 7.73471 29.3842 7.76223C27.2875 7.84652 26.1993 7.86759 24.76 6.95447C24.0383 6.47403 24.0508 6.43048 18.8434 1.20042C18.0237 0.377205 16.6963 0.377205 15.8767 1.20042C14.4094 2.67405 1.13552 15.9663 1.00124 16.0997C0.605398 16.4959 0.384399 17.0339 0.384399 17.5944C0.384399 18.1549 0.608196 18.6916 1.00264 19.0877L7.04925 25.1264C7.65372 25.73 8.15459 26.4196 8.3124 27.2592C8.38044 27.6212 8.44044 28.002 8.49002 28.3186C8.74426 29.9313 9.0689 31.985 10.1424 33.8807C10.2285 34.0326 10.2064 34.2243 10.0832 34.348C7.62281 36.8191 7.62281 40.8171 10.0832 43.2882C11.9296 45.1426 14.1702 47.3929 16.0166 49.2473C17.8642 51.103 20.1034 53.3511 21.95 55.2079C23.7964 57.0623 26.0372 59.3138 27.8848 61.167C29.2136 62.5016 30.9702 63.1045 32.6825 63.0101C34.1533 62.929 35.7469 63.1028 36.7863 64.1466C39.2466 66.6177 43.2274 66.6177 45.6878 64.1466C47.5333 62.2931 49.7759 60.0399 51.6225 58.1875C53.4702 56.3318 55.7083 54.0826 57.5559 52.2269C59.4023 50.3725 61.6429 48.1222 63.4893 46.2677C65.9441 43.8023 65.9441 39.793 63.4893 37.3276C62.5242 36.3591 62.392 34.8585 62.8408 33.5669C63.724 31.0251 63.5924 28.5961 64.1425 27.5769C64.1523 27.5629 64.1621 27.5488 64.1733 27.539ZM45.815 12.9919C45.815 12.9915 45.8155 12.9913 45.8158 12.9916L58.7874 26.0196C59.4583 26.6933 59.7234 27.6548 59.582 28.5951C59.2962 30.4964 57.2454 31.0509 55.8888 29.6885L45.6905 19.4459C43.2302 16.9749 39.2494 16.9749 36.7891 19.4459L30.8543 25.4065C30.0346 26.2297 28.7072 26.2297 27.8876 25.4065C27.0693 24.5847 27.0693 23.2473 27.8876 22.4269L33.8224 16.4664C37.1932 13.0809 41.8256 13.4755 45.8147 12.9923C45.8149 12.9923 45.815 12.9921 45.815 12.9919ZM10.2679 19.1887C9.38374 20.0768 7.94673 20.0788 7.06002 19.1933C6.17424 18.3087 6.17241 16.8744 7.05697 15.9886C9.5972 13.4449 13.1831 9.85376 15.7565 7.27537C16.6395 6.3906 18.0731 6.39159 18.9551 7.27741C19.8323 8.15843 19.8323 9.5828 18.9551 10.4638L10.2679 19.1887ZM16.018 40.3058C15.1997 41.1276 13.8695 41.1276 13.0513 40.3058C12.2316 39.4826 12.2316 38.1494 13.0513 37.3262C14.194 36.1785 14.8304 35.5393 16.018 34.3466C16.8362 33.5248 18.1664 33.5248 18.9847 34.3466C19.8043 35.1698 19.8043 36.503 18.9847 37.3262L16.018 40.3058ZM21.9528 46.2663C21.1331 47.0896 19.8057 47.0896 18.9861 46.2663C18.1678 45.4445 18.1678 44.1086 18.9861 43.2868L21.9528 40.3072C22.771 39.4854 24.1026 39.4854 24.9195 40.3072C25.7377 41.129 25.7377 42.465 24.9195 43.2868L21.9528 46.2663ZM24.9195 52.2255C24.1012 51.4037 24.1012 50.0677 24.9195 49.2459L27.8862 46.2663C28.7058 45.4431 30.0332 45.4431 30.8529 46.2663C31.6725 47.0896 31.6725 48.4227 30.8529 49.2459L27.8862 52.2255C27.0679 53.0473 25.7363 53.0473 24.9195 52.2255ZM36.7891 55.2051L33.8224 58.1847C33.0027 59.0079 31.6753 59.0079 30.8557 58.1847C30.0374 57.3628 30.0374 56.0269 30.8557 55.2051L33.8224 52.2255C34.6406 51.4037 35.9708 51.4051 36.7891 52.2255C37.6059 53.0473 37.6059 54.3847 36.7891 55.2051ZM42.7225 61.1649C42.7225 61.1654 42.7223 61.1658 42.722 61.1661C41.9023 61.9888 40.5752 61.9887 39.7558 61.1656C38.9351 60.3414 38.9351 59.0089 39.7558 58.1847C40.4926 57.4446 41.7606 57.2186 42.4974 57.9586L42.7225 58.1847C43.5419 59.0077 43.5421 60.3405 42.7229 61.1637C42.7226 61.164 42.7225 61.1645 42.7225 61.1649ZM60.5268 43.2847C60.5259 43.2851 60.5251 43.2857 60.5243 43.2865C59.706 44.1072 58.3766 44.1068 57.5587 43.2854L47.397 33.0795C46.5773 32.2563 45.2485 32.2563 44.4303 33.0795C43.612 33.9027 43.6106 35.2373 44.4303 36.0591L54.592 46.2649C55.4103 47.0868 55.4103 48.4227 54.592 49.2445C53.7724 50.0677 52.4464 50.0677 51.6253 49.2445L41.5965 39.1721C40.7768 38.3489 39.448 38.3489 38.6298 39.1721C37.8115 39.9953 37.8101 41.3299 38.6298 42.1517L48.66 52.2255C49.4783 53.0473 49.4783 54.3833 48.66 55.2051C47.8418 56.0269 46.5116 56.0269 45.6933 55.2051L39.7585 49.2445C37.9129 47.3909 35.6694 45.139 33.8238 43.2854C31.9761 41.4297 29.7369 39.1816 27.8904 37.3248C26.0428 35.467 23.8045 33.2221 21.957 31.3642C20.4823 29.8832 18.4522 29.2928 16.5343 29.5922C14.8536 29.8545 12.9039 29.336 12.64 27.6556C12.2763 25.3495 12.7132 22.6962 14.3605 21.0418L20.0913 15.2861C22.484 12.883 26.1664 12.1104 29.5548 11.9738C29.812 11.9634 30.0675 11.9531 30.3225 11.9457C31.1284 11.9225 31.4259 12.9126 30.8571 13.484L24.9223 19.4445C22.4689 21.9085 22.4689 25.9192 24.9223 28.3847C27.3826 30.8557 31.3634 30.8557 33.8238 28.3847L39.7585 22.4241C40.5782 21.6009 41.9056 21.6009 42.7252 22.4241L60.5282 40.3044C61.3461 41.1258 61.3465 42.4623 60.5293 43.2828C60.5286 43.2836 60.5278 43.2842 60.5268 43.2847ZM50.3048 11.5397C50.3044 11.5397 50.3043 11.5392 50.3046 11.539C50.8226 11.1757 50.777 11.2012 53.885 8.07436C54.5002 7.45542 55.5011 7.45426 56.1174 8.07212C56.8524 8.80899 58.1015 10.0559 64.5771 16.5238C65.8685 17.8137 65.8741 19.9145 64.5806 21.2024C63.2896 22.4877 61.2011 22.4832 59.9157 21.1922L50.3051 11.5398C50.305 11.5398 50.3049 11.5397 50.3048 11.5397Z" fill="#00C4D1"/>
</svg>
