<svg width="86" height="66" viewBox="0 0 86 66" fill="none" xmlns="http://www.w3.org/2000/svg">
<path d="M85.0124 41.5554C84.8679 41.1378 75.4045 16.2747 75.3592 16.169C74.0591 12.8232 71.4505 10.2069 68.2575 8.81824C68.2205 8.72433 66.9725 5.4875 66.9305 5.39526C65.4776 2.11651 62.1988 0 58.5808 0C54.5243 0 50.9197 2.71859 49.8145 6.60949C49.7507 6.83255 49.7188 7.06399 49.7188 7.29543V18.6159H36.2812V7.29543C36.2812 7.06399 36.2493 6.83255 36.1855 6.60949C35.0803 2.71859 31.4757 0 27.4192 0C23.3628 0 20.1411 2.60623 19.0208 5.50763L17.7409 8.81824C14.3983 10.274 11.8435 12.9993 10.6039 16.2596C0.347695 43.2091 1.13883 41.1177 0.987656 41.5538C0.332578 43.4506 0 45.4379 0 47.4622C0 57.4494 8.13809 65.575 18.1406 65.575C27.1135 65.575 34.5848 59.0359 36.0276 50.481H49.9724C51.4169 59.0359 58.8865 65.575 67.8594 65.575C77.8619 65.575 86 57.4494 86 47.4622C86 45.4396 85.6674 43.4506 85.0124 41.5554ZM70.6846 18.0457C70.6947 18.0742 70.7064 18.101 70.7182 18.1296L75.6548 31.1054C68.6875 27.7864 60.2454 29.2236 54.7578 34.9476V20.9639C54.7578 16.4323 58.4498 12.746 62.9883 12.746C66.3863 12.746 69.4786 14.876 70.6846 18.0457ZM49.7188 38.4058H36.2812V23.6472H49.7188V38.4058ZM36.2812 43.4371H49.7188V45.4497H36.2812V43.4371ZM58.5808 5.03133C60.1681 5.03133 61.7336 5.91014 62.4357 7.72812C59.5416 7.8472 56.886 8.89539 54.7578 10.5826V7.68787C55.3407 6.10971 56.8709 5.03133 58.5808 5.03133ZM27.4192 5.03133C29.1291 5.03133 30.6593 6.10971 31.2422 7.68787V10.5826C29.1123 8.89539 26.4568 7.8472 23.5643 7.72812C24.2547 5.942 25.795 5.03133 27.4192 5.03133ZM15.3154 18.0457C16.5197 14.876 19.612 12.746 23.0117 12.746C27.5502 12.746 31.2422 16.4323 31.2422 20.9639V34.9476C25.7563 29.2236 17.3125 27.7864 10.3452 31.1054C17.6972 11.7834 14.3966 20.4591 15.3171 18.0457H15.3154ZM18.1406 60.5437C10.9163 60.5437 5.03906 54.6755 5.03906 47.4622C5.03906 40.249 11.0843 34.3807 18.1406 34.3807C25.197 34.3807 31.2422 40.249 31.2422 47.4622C31.2422 54.6755 25.365 60.5437 18.1406 60.5437ZM67.8594 60.5437C60.635 60.5437 54.7578 54.6755 54.7578 47.4622C54.7578 40.249 60.635 34.3807 67.8594 34.3807C75.0837 34.3807 80.9609 40.1282 80.9609 47.4622C80.9609 54.7962 75.0837 60.5437 67.8594 60.5437Z" fill="#0183B3"/>
</svg>
